<?xml version="1.0" encoding="utf-8"?>
<!-- Generator: Adobe Illustrator 27.3.1, SVG Export Plug-In . SVG Version: 6.00 Build 0)  -->
<svg version="1.1" id="レイヤー_1" xmlns="http://www.w3.org/2000/svg" xmlns:xlink="http://www.w3.org/1999/xlink" x="0px"
	 y="0px" viewBox="0 0 1089 480" style="enable-background:new 0 0 1089 480;" xml:space="preserve">
<style type="text/css">
	.st0{opacity:0.1672;fill:#C5C5C5;enable-background:new    ;}
	.st1{fill:#1A1A1A;}
	.st2{font-family:'HiraginoSans-W4-83pv-RKSJ-H';}
	.st3{font-size:12px;}
	.st4{letter-spacing:6;}
</style>
<g id="Page-1">
	<g id="home" transform="translate(-389.000000, -309.000000)">
		<g id="hero" transform="translate(-91.000000, -140.000000)">
			<g id="maintitle" transform="translate(631.000000, 449.000000)">
				<path id="Reo" class="st0" d="M240.2,396.6l-128.9-62.9c-32.8,44.9-51.2,74.5-55,88.9c-2.7,10.3-8.8,18.9-18.3,25.8
					s-16.2,10.4-20.3,10.4c-11.6,0-17.4-4.4-17.4-13.3c0-5,6.9-19.4,20.7-43.2s32.8-51.9,56.9-84.3c-13.4-5.5-21.8-9.1-25-10.9
					s-4.4-5.3-3.8-10.4s4.7-13.2,12-24.1c6.4-9.6,11.2-16,14.4-19.3s6.9-5.9,11.3-7.9s8.9-3.2,13.7-3.9s18.2-2.4,40.3-5.1
					c18-24.4,37.5-50.7,58.6-79s37.5-50.2,49.4-66c-35.8,4.8-60.7,8.8-74.9,12c-15,3-27.6,5.4-37.8,7.3s-17.3,3.6-21.4,5.1
					s-6.2,3.6-6.2,6.3c0,2.5,2.5,4.2,7.5,5.1c5,0.9,11.3,1.4,19,1.4s13.6,0.3,17.8,0.9s6.3,1.9,6.3,3.9c0,2.3-2.8,3.6-8.4,3.9
					s-21.2,1.1-47,2.2c-14.6,0.5-26.8,0.9-36.7,1.4s-16.8,0.7-20.7,0.7c-5.2,0-9.3-1.6-12.3-4.8s-4.4-7.4-4.4-12.6
					c0-3.9,2.2-11.1,6.5-21.5s10.5-21.1,18.5-31.8s17.1-19,27.3-25c11.6-7.1,29.7-14.2,54.2-21.4s51.7-13,81.7-17.4s59.6-6.7,89-6.7
					c17.8,0,35.1,1,52.1,3.1S391.4,8,405.2,11s24.7,5.9,32.6,8.9c20.7,6.8,36.6,17.2,47.7,31.1s16.6,29.2,16.6,45.8
					c0,16.2-2.8,32-8.4,47.3s-14.1,29.6-25.6,42.7s-25.3,23.8-41.5,32c-13.2,6.8-33.3,13.8-60.2,20.8S307,253,268.9,258.5
					s-80.5,9.5-127.5,12c35.1,12.3,67.8,24.7,98.3,37.1s56.1,23.5,76.9,33.2s37.2,17.6,49,23.8c16.6,8.7,27.5,14.9,32.5,18.8
					s8.3,8.9,9.9,15s2.4,16.3,2.4,30.4c0,16-1,27.7-2.9,35.4s-6.1,11.5-12.5,11.5c-2.1,0-7.5-2.2-16.2-6.7s-20.9-10.9-36.4-19.5
					s-29.6-16.2-42.2-22.9S267.6,409.8,240.2,396.6z M270.3,87.9c0.2,1.6,0.4,3.1,0.5,4.4s0.2,3.3,0.2,5.8c0,6.4-2,13.7-6,22
					s-9.1,16.9-15.4,25.6s-15.6,21.3-28,37.6s-23.9,31.3-34.4,44.9c47.9-9.1,88.7-17.9,122.5-26.3s61.7-16.9,83.6-25.5
					s38.3-17.5,49.4-27s16.6-19.3,16.6-29.6c0-11.4-11.6-20.3-34.7-26.8s-51.4-9.7-84.9-9.7c-6.8,0-14.1,0.2-21.7,0.5
					s-16.7,1-27.3,2.1S273.3,87.7,270.3,87.9z M494.2,332.6v8.5c0,13.4,3.3,23.9,9.9,31.4s15.3,11.3,26,11.3
					c11.2,0,22.7-2.6,34.7-7.9s23.9-12.2,35.7-20.8s26.3-20.3,43.4-34.9v20.8c-25.7,31-49.9,54.7-72.5,71.3s-45.5,24.8-68.7,24.8
					c-20.3,0-36.3-7.9-48.2-23.6s-17.8-37.3-17.8-64.6c0-23.9,5.6-45.6,16.7-65.1s29.4-40,54.7-61.7c17.3-14.8,34.5-26,51.6-33.5
					s32.4-11.3,45.8-11.3c10.7,0,19.2,2.4,25.5,7.3s9.4,12.2,9.4,22c0,14.4-5.4,28.7-16.1,42.9s-27.1,28.4-49,42.4
					S526.3,319.7,494.2,332.6z M497.6,310.4c20.5-8,38.1-17.9,52.6-29.7s25.3-23.2,32.3-34c6.9-10.8,10.4-18.7,10.4-23.8
					c0-5.2-2.4-7.9-7.2-7.9c-4.1,0-10.8,2.6-20,7.9s-18.6,12.1-28,20.5s-17.9,18.3-25.5,29.7C504.8,284.6,499.9,297,497.6,310.4z
					 M863.7,319.7v22.9c-15,13.7-27.1,22.8-36.2,27.3s-22.2,6.4-39.3,5.5c-29.6,35.1-55.7,52.6-78.3,52.6
					c-12.8,0-24.4-4.2-34.9-12.6s-18.9-19.9-25.1-34.5s-9.4-30.9-9.4-48.9c0-14.6,4.8-30.8,14.5-48.5s22.2-34.4,37.6-49.7
					s31.8-27.8,49.4-37.3s33.8-14.2,48.9-14.2c10.7,0,19.1,1.7,25.3,5s9.2,7.9,9.2,13.8c0,4.6-2.6,9.8-7.9,15.7
					c8.7,1.8,14.6,4.8,17.8,9.1s4.8,11.9,4.8,23.1c0,10.9-2.6,24.7-7.7,41.4s-12.1,32.2-21,46.8l6.2,6.2h5.1c3.9,0,7.7-1,11.5-2.9
					s7.1-4,10.1-6.2S853.6,327.2,863.7,319.7z M793.3,229.8c-18.9,11.4-35.1,21.7-48.5,30.9c-13.4,9.2-24.8,18.6-34.2,28
					s-15.6,19-18.8,28.5c-5.7,25.5-8.5,39.3-8.5,41.4c0,15,10.5,22.6,31.4,22.6c9.8,0,26.2-8.4,49.2-25.3c-3.9-10.7-5.8-21-5.8-30.8
					c0-14.4,3-29,8.9-43.9S781.6,249.1,793.3,229.8z"/>
				<path id="デザインが僕の人生を創っている" class="st1" d="M762.3,36.5l-0.9,0.4c-0.3-0.7-0.9-1.6-1.3-2.2
					l0.9-0.4C761.4,34.8,762,35.8,762.3,36.5z M758.7,36.9h-5.6c-0.5,0-1.1,0-1.5,0v-1.3c0.5,0,1,0.1,1.5,0.1h5.6c0.5,0,1,0,1.5-0.1
					v1.3C759.7,36.9,759.1,36.9,758.7,36.9z M751.1,39.7h10.5c0.3,0,0.9,0,1.3-0.1v1.3c-0.4,0-0.9,0-1.3,0h-4.4c0,1.7-0.3,3.2-1,4.4
					c-0.6,1.1-1.8,2.2-3.2,2.9l-1.2-0.9c1.3-0.5,2.4-1.5,3-2.5c0.7-1.1,0.9-2.5,0.9-4h-4.8c-0.5,0-1,0-1.4,0v-1.3
					C750.2,39.7,750.6,39.7,751.1,39.7z M761.9,34l0.9-0.4c0.4,0.6,1,1.6,1.4,2.2l-0.9,0.4C762.9,35.5,762.4,34.6,761.9,34z
					 M762.1,73.3l-0.8,0.3c-0.2-0.7-0.6-1.7-0.9-2.3l0.8-0.2C761.5,71.6,761.9,72.6,762.1,73.3z M759.7,74.4h1.8
					c0.7,0,1.3,0,1.5-0.1v1.4c-0.2,0-0.8,0-1.5,0h-1.8v0.6c0,4.3-0.9,6.5-4.6,8.2l-1.1-1c2.9-1.1,4.4-2.5,4.4-7v-0.7h-4.6v2.6
					c0,0.6,0,1.3,0.1,1.5h-1.4c0-0.1,0.1-0.8,0.1-1.5v-2.6h-1.7c-0.7,0-1.4,0-1.6,0v-1.4c0.1,0,0.9,0.1,1.6,0.1h1.7v-2.1
					c0-0.5,0-1-0.1-1.2h1.4c0,0.1-0.1,0.6-0.1,1.2v2.1h4.6v-2c0-0.6,0-1.2-0.1-1.3h1.5c0,0.2-0.1,0.7-0.1,1.3V74.4z M762,70.8
					l0.8-0.2c0.3,0.6,0.7,1.6,1,2.2l-0.8,0.3C762.7,72.3,762.3,71.4,762,70.8z M761.2,106.8l1.1,1c-1.1,1.1-2.7,2.4-4.3,3.5v6.9
					c0,0.6,0,1.4,0.1,1.7h-1.6c0-0.3,0.1-1.1,0.1-1.7V112c-1.7,1-3.9,1.9-6.1,2.5l-0.7-1.3c2.7-0.6,5.4-1.9,7.2-3
					C758.6,109.3,760.3,107.9,761.2,106.8z M752,143.5c1.1,0.8,3.2,2.4,4.1,3.3l-1,1c-0.8-0.8-2.8-2.6-4-3.4L752,143.5z
					 M750.6,154.3c2.8-0.4,4.9-1.4,6.4-2.4c2.5-1.6,4.4-3.9,5.4-5.9l0.8,1.4c-1.1,2-3,4.2-5.4,5.7c-1.6,1-3.6,2-6.3,2.5L750.6,154.3
					z M764,179.9l-0.9,0.4c-0.4-0.7-0.9-1.6-1.3-2.2l0.9-0.4C763.1,178.3,763.7,179.3,764,179.9z M762.2,180.6l-0.9,0.4
					c-0.3-0.6-0.9-1.6-1.3-2.2l0.9-0.4C761.3,178.9,761.9,179.9,762.2,180.6z M753.7,178.7l1.5,0.1c-0.1,0.3-0.1,0.6-0.2,1
					c-0.1,0.5-0.2,1.4-0.4,2.3c0.7-0.1,1.4-0.1,1.8-0.1c1.4,0,2.6,0.6,2.6,2.7c0,1.9-0.3,4.4-0.9,5.8c-0.5,1.1-1.3,1.3-2.3,1.3
					c-0.6,0-1.4-0.1-1.9-0.2l-0.2-1.4c0.7,0.2,1.5,0.4,2,0.4c0.6,0,1-0.1,1.4-0.8c0.5-1.1,0.8-3.1,0.8-4.9c0-1.5-0.7-1.7-1.7-1.7
					c-0.4,0-1,0-1.7,0.1c-0.6,2.3-1.7,5.9-3.4,8.6l-1.3-0.5c1.6-2.2,2.8-5.8,3.4-7.9c-0.8,0.1-1.6,0.2-2,0.2c-0.4,0-1,0.1-1.4,0.2
					l-0.1-1.4c0.5,0,0.9,0,1.4,0c0.5,0,1.5-0.1,2.4-0.2C753.5,181.1,753.7,179.8,753.7,178.7z M759.5,181.2l1.2-0.5
					c1,1.3,2.4,4.2,2.9,5.7l-1.2,0.6C761.9,185.3,760.6,182.5,759.5,181.2z M755.6,214.4h1.3c0,0.2,0,0.5,0,0.7
					c0.1,2.1,1,9.6,7.1,12.3c-0.3,0.3-0.7,0.7-0.9,1c-4.2-2-5.9-6.1-6.7-9.3c-0.7,3.2-2.4,7.1-6.4,9.3c-0.2-0.3-0.6-0.7-1-0.9
					C755.5,224.2,755.5,216.5,755.6,214.4z M757.1,262.9h6.5v1.2h-14.3v-1.2h6.5v-4.1H751v-1.2h4.8v-3.5H752c-0.5,1-1.1,1.9-1.7,2.6
					c-0.2-0.2-0.8-0.5-1.1-0.7c1.3-1.4,2.4-3.6,3-5.9l1.2,0.3c-0.3,0.9-0.5,1.8-0.9,2.6h3.3v-3.1h1.2v3.1h5.8v1.2h-5.8v3.5h5.2v1.2
					h-5.2V262.9z M757.9,297.2h-1.2c0-0.6,0.1-1.6,0.1-2.5c-1.5,0.8-2.5,1.6-2.5,2.7c0,1.3,1.2,1.4,2.9,1.4c1.2,0,2.9-0.1,4.4-0.4
					l0,1.3c-1.2,0.1-3,0.3-4.4,0.3c-2.3,0-4.1-0.5-4.1-2.4c0-1.9,1.9-3.1,3.8-4c-0.2-0.7-0.7-1-1.4-1c-1,0-2,0.5-2.8,1.2
					c-0.5,0.4-0.9,1-1.5,1.7l-1.1-0.8c2-2,3.1-3.6,3.7-4.9h-0.7c-0.7,0-1.8,0-2.6-0.1v-1.2c0.9,0.1,2,0.2,2.7,0.2c0.3,0,0.7,0,1,0
					c0.2-0.7,0.4-1.4,0.4-2l1.3,0.1c-0.1,0.5-0.3,1.1-0.5,1.8c1.6-0.1,3.4-0.2,4.9-0.5l0,1.2c-1.6,0.2-3.5,0.4-5.3,0.5
					c-0.4,0.8-0.9,1.7-1.4,2.4c0.6-0.4,1.5-0.6,2.2-0.6c1,0,1.9,0.5,2.1,1.5c1.1-0.5,2.1-0.9,2.9-1.3c0.5-0.2,0.9-0.4,1.3-0.6
					l0.5,1.2c-0.4,0.1-1,0.3-1.4,0.5c-0.9,0.4-2,0.8-3.3,1.4C757.9,295,757.9,296.4,757.9,297.2z M755.9,327.6h-4.2v0.9h4.2V327.6z
					 M751.7,330.2h4.2v-0.9h-4.2v0C751.7,329.6,751.7,329.9,751.7,330.2z M756.2,333.1h-3.7v1.9h3.7V333.1z M757,331.1h-5.4
					c0,0.3-0.1,0.7-0.1,1h5.8v4.3h-1.1v-0.5h-3.7v0.7h-1v-4.2c-0.3,1.4-0.8,2.8-1.7,3.9c-0.1-0.2-0.6-0.6-0.8-0.7
					c1.5-1.8,1.7-4.3,1.7-6.2v-2.6h6.4V331.1z M753.2,322h1.1c1.2,0.9,2.7,2.2,3.5,3L757,326c-0.7-0.8-2-2-3.1-2.9
					c-0.5,0.6-1,1.2-1.7,1.9h3.7v0.9H752v-0.7c-0.7,0.6-1.5,1.3-2.3,1.8c-0.1-0.2-0.5-0.6-0.8-0.8C750.9,325,752.4,323.3,753.2,322z
					 M759.5,323.8v8.9h-1.1v-8.9H759.5z M761.9,322.2h1.2V335c0,0.8-0.2,1.2-0.7,1.4c-0.5,0.2-1.4,0.2-2.8,0.2
					c0-0.3-0.2-0.9-0.4-1.2c1.1,0,2,0,2.4,0c0.3,0,0.4-0.1,0.4-0.4V322.2z M751,364.9c0.5-0.1,1-0.2,1.5-0.4
					c1.1-0.4,3.8-1.3,5.6-1.3c2.3,0,3.9,1.4,3.9,3.5c0,3.1-3,4.7-7.3,4.9l-0.5-1.2c3.4-0.1,6.5-1.1,6.5-3.7c0-1.4-1.1-2.3-2.7-2.3
					c-2,0-5.5,1.5-6.5,1.9L751,364.9z M749.8,396.6c0.6,0,1.1,0,1.4-0.1c1-0.1,4.1-0.4,7-0.6c1.7-0.1,3.2-0.2,4.3-0.3v1.3
					c-0.9,0-2.3,0-3.1,0.3c-2.3,0.7-3.6,3.1-3.6,5c0,3.1,2.9,4.1,5.5,4.2l-0.5,1.3c-2.9-0.1-6.3-1.7-6.3-5.3c0-2.5,1.5-4.5,3-5.4
					c-1.4,0.2-5.8,0.6-7.5,0.9L749.8,396.6z M752,432.1c-0.1,0.4-0.1,1.1-0.1,1.5c0,1,0,2.5,0.1,3.8c0.3,2.7,1,4.4,2.2,4.4
					c0.8,0,1.6-1.6,2-3.3l1,1.2c-1,2.7-1.9,3.6-3,3.6c-1.5,0-2.9-1.5-3.4-5.6c-0.2-1.4-0.2-3.3-0.2-4.3c0-0.4,0-1-0.1-1.4L752,432.1
					z M760.3,432.6c1.4,1.9,2.6,5.1,2.8,7.8l-1.3,0.5c-0.3-2.9-1.2-6-2.8-7.9L760.3,432.6z M756.4,478.8c0.5,0,0.9,0,1.3-0.1
					c-0.1-1.3-0.9-2.1-2.1-2.1c-0.7,0-1.3,0.4-1.3,1C754.3,478.4,755.2,478.8,756.4,478.8z M759.7,467.2l0.7,0.9
					c-0.3,0.2-0.6,0.4-0.9,0.6c-0.8,0.6-2.9,2.5-4.2,3.5c0.7-0.2,1.5-0.3,2.2-0.3c2.7,0,4.6,1.6,4.6,3.8c0,2.6-2.1,4.3-5.5,4.3
					c-2.2,0-3.5-1-3.5-2.3c0-1.1,1-2.1,2.5-2.1c2,0,3.1,1.3,3.3,2.8c1.3-0.5,2-1.4,2-2.7c0-1.6-1.6-2.7-3.6-2.7
					c-2.6,0-4.1,1.1-6.1,3.2l-0.9-1c1.3-1.1,3.4-2.8,4.3-3.6c0.9-0.7,2.9-2.4,3.7-3.1c-0.8,0-4,0.2-4.8,0.2c-0.4,0-0.7,0-1.1,0.1
					l0-1.3c0.4,0,0.8,0,1.1,0c0.8,0,4.6-0.1,5.4-0.2C759.3,467.3,759.5,467.3,759.7,467.2z"/>
				<path id="_x25CB__x25B3__x25A1_" class="st1" d="M790,14.2c0-4.7,3.8-8.5,8.5-8.5s8.5,3.8,8.5,8.5s-3.8,8.5-8.5,8.5
					S790,18.9,790,14.2z M798.5,6.4c-4.3,0-7.8,3.5-7.8,7.8s3.5,7.8,7.8,7.8c4.3,0,7.8-3.5,7.8-7.8S802.9,6.4,798.5,6.4z
					 M806.9,37.3l-15.4,8.9V28.4L806.9,37.3z M805.3,37.3l-12.9-7.4v14.9L805.3,37.3z M806.1,52.8v15.1H791V52.8H806.1z M805.4,53.5
					h-13.7v13.7h13.7V53.5z"/>
			</g>
			<g id="maintext" transform="translate(480.500000, 526.000000)">
				<path id="Designcreatemylife" class="st1" d="M48.5,203v-73.3h20.1c22.4,0,36.2,11.6,36.2,36.3c0,24.7-13.9,36.9-35.4,36.9H48.5
					z M63.2,191.2h4.6c13.7,0,22.2-7.3,22.2-25.1c0-17.9-8.5-24.7-22.2-24.7h-4.6V191.2z M142.1,204.4c-15.4,0-27.5-10.8-27.5-29
					c0-18,12.6-29.2,25.8-29.2c15.2,0,23.2,11.2,23.2,26.5c0,2.7-0.3,5.3-0.7,6.6h-34.2c1.2,9.1,7.1,13.9,15.3,13.9
					c4.6,0,8.5-1.4,12.5-3.9l4.9,8.9C156,202,149,204.4,142.1,204.4z M128.5,169.7h22.6c0-7.5-3.4-12.3-10.5-12.3
					C134.7,157.5,129.6,161.6,128.5,169.7z M191.4,204.4c-7.4,0-15.6-3.3-21.1-7.8l6.6-9.1c4.9,3.9,9.7,6,14.8,6c5.5,0,8-2.4,8-5.8
					c0-4.2-5.7-6-11.6-8.3c-7-2.7-15.1-6.9-15.1-16.1c0-10,8.1-17,20.6-17c8.1,0,14.3,3.4,18.9,6.8l-6.5,8.8c-4-2.8-7.8-4.8-12-4.8
					c-4.9,0-7.3,2.2-7.3,5.3c0,4.1,5.4,5.5,11.3,7.7c7.3,2.8,15.4,6.4,15.4,16.7C213.4,196.6,205.8,204.4,191.4,204.4z M224.5,203
					v-55.4H239V203H224.5z M231.9,138.6c-5,0-8.7-3.4-8.7-7.9c0-4.8,3.7-7.9,8.7-7.9c5,0,8.6,3.2,8.6,7.9
					C240.5,135.3,236.8,138.6,231.9,138.6z M274.1,227.1c-13.1,0-23.2-4.5-23.2-14.3c0-4.7,2.9-8.6,7.9-11.5v-0.5
					c-2.9-1.9-5-4.8-5-9.3c0-4.2,2.9-8,6.1-10.4v-0.4c-3.8-2.8-7.3-8-7.3-14.5c0-13.1,10.6-20.1,22.4-20.1c3.1,0,6,0.6,8.3,1.4h20
					v10.7h-9.5c1.5,1.9,2.6,4.9,2.6,8.4c0,12.5-9.5,18.8-21.4,18.8c-2.2,0-4.8-0.5-7.1-1.3c-1.6,1.3-2.4,2.6-2.4,4.8
					c0,3,2.2,4.6,8.7,4.6h9.4c13.4,0,20.6,4.2,20.6,13.9C304.2,218.5,292.6,227.1,274.1,227.1z M275,176.5c4.9,0,8.6-3.7,8.6-10.2
					s-3.7-10.2-8.6-10.2c-4.9,0-8.7,3.7-8.7,10.2S270.2,176.5,275,176.5z M276.3,217.9c8.3,0,14.1-3.7,14.1-8c0-4-3.3-4.9-9.2-4.9
					h-6.7c-3.4,0-5.7-0.3-7.7-0.8c-2.5,2-3.7,4.2-3.7,6.4C263,215.2,268.2,217.9,276.3,217.9z M313.7,203v-55.4h11.9l1,7.3h0.4
					c4.9-4.8,10.5-8.7,18-8.7c12,0,17.1,8.3,17.1,22.3V203h-14.6v-32.8c0-8.5-2.4-11.6-7.8-11.6c-4.6,0-7.4,2.2-11.6,6.2V203H313.7z
					 M423.2,204.4c-15.3,0-27-10.7-27-29c0-18.5,13.3-29.2,28.3-29.2c6.8,0,12.1,2.7,16.1,6.1l-6.9,9.4c-2.8-2.4-5.3-3.7-8.5-3.7
					c-8.4,0-14.2,6.8-14.2,17.3c0,10.4,5.7,17.1,13.8,17.1c4,0,7.7-1.9,10.8-4.5l5.7,9.6C436.1,202.3,429.4,204.4,423.2,204.4z
					 M451.8,203v-55.4h11.9l1,9.8h0.4c4.1-7.2,10-11.2,15.7-11.2c3.1,0,4.9,0.5,6.5,1.2l-2.6,12.6c-1.9-0.6-3.5-0.9-5.7-0.9
					c-4.4,0-9.6,2.9-12.8,10.9V203H451.8z M517.9,204.4c-15.4,0-27.5-10.8-27.5-29c0-18,12.6-29.2,25.8-29.2
					c15.2,0,23.2,11.2,23.2,26.5c0,2.7-0.3,5.3-0.7,6.6h-34.2c1.2,9.1,7.1,13.9,15.3,13.9c4.6,0,8.5-1.4,12.5-3.9l4.9,8.9
					C531.8,202,524.8,204.4,517.9,204.4z M504.3,169.7h22.6c0-7.5-3.4-12.3-10.5-12.3C510.5,157.5,505.4,161.6,504.3,169.7z
					 M563.6,204.4c-9.9,0-16.4-7-16.4-16.4c0-11.9,9.6-18.1,31.9-20.5c-0.2-5.4-2.6-9.6-9.4-9.6c-5.1,0-10.1,2.3-15.2,5.2l-5.2-9.6
					c6.5-4.1,14.5-7.3,23.2-7.3c14.1,0,21.3,8.4,21.3,24.5V203h-11.9l-1.1-5.9h-0.3C575.5,201.2,569.9,204.4,563.6,204.4z
					 M568.4,193c4.2,0,7.2-2,10.7-5.4v-11.2c-13.5,1.8-18,5.4-18,10.4C561,191.1,564.1,193,568.4,193z M626.9,204.4
					c-13.2,0-18.2-8.3-18.2-20.8V159h-7.8v-10.8l8.5-0.7l1.7-14.8h12.2v14.8h13.7V159h-13.7v24.6c0,6.3,2.6,9.3,7.5,9.3
					c1.8,0,4-0.6,5.4-1.2l2.4,10.6C635.6,203.3,631.7,204.4,626.9,204.4z M670.3,204.4c-15.4,0-27.5-10.8-27.5-29
					c0-18,12.6-29.2,25.8-29.2c15.2,0,23.2,11.2,23.2,26.5c0,2.7-0.3,5.3-0.7,6.6H657c1.2,9.1,7.1,13.9,15.3,13.9
					c4.6,0,8.5-1.4,12.5-3.9l5,8.9C684.3,202,677.3,204.4,670.3,204.4z M656.8,169.7h22.6c0-7.5-3.4-12.3-10.5-12.3
					C663,157.5,657.9,161.6,656.8,169.7z M726.3,203v-55.4h11.9l1,7.4h0.4c4.7-4.9,9.8-8.8,17-8.8c7.9,0,12.6,3.6,15.2,9.7
					c5-5.3,10.4-9.7,17.6-9.7c11.8,0,17.2,8.3,17.2,22.3V203h-14.6v-32.8c0-8.5-2.5-11.6-7.7-11.6c-3.2,0-6.7,2.1-10.7,6.2V203
					h-14.6v-32.8c0-8.5-2.5-11.6-7.7-11.6c-3.2,0-6.7,2.1-10.7,6.2V203H726.3z M826.5,225.3c-3.3,0-5.4-0.4-7.6-1.1l2.7-11.2
					c1,0.3,2.6,0.7,3.9,0.7c5.6,0,8.8-3.6,10.4-8.4l1-3.3l-21.6-54.4h14.7l8.8,25.7c1.7,4.9,3.1,10.3,4.7,15.6h0.5
					c1.3-5.1,2.7-10.5,4-15.6l7.6-25.7h14l-19.7,57.1C844.9,217.8,838.9,225.3,826.5,225.3z M959.6,204.4
					c-10.1,0-13.7-6.6-13.7-16.9V124h14.5v64.2c0,3.3,1.6,4.4,3,4.4c0.6,0,1,0,2-0.2l1.8,10.8C965.4,203.8,963,204.4,959.6,204.4z
					 M977.1,203v-55.4h14.5V203H977.1z M984.5,138.6c-5,0-8.7-3.4-8.7-7.9c0-4.8,3.7-7.9,8.7-7.9c5,0,8.6,3.2,8.6,7.9
					C993.1,135.3,989.4,138.6,984.5,138.6z M1039.5,124.6l-2.7,10.7c-1.9-0.7-4.1-1.2-5.8-1.2c-4.4,0-6.7,2.6-6.7,8.7v4.8h10.4V159
					h-10.4v44h-14.6v-44h-7.4v-10.8l7.4-0.6v-4.6c0-11.6,5.3-20.5,19.3-20.5C1033.3,122.6,1037,123.6,1039.5,124.6z M1066.9,204.4
					c-15.4,0-27.5-10.8-27.5-29c0-18,12.6-29.2,25.8-29.2c15.2,0,23.2,11.2,23.2,26.5c0,2.7-0.3,5.3-0.7,6.6h-34.2
					c1.2,9.1,7.1,13.9,15.3,13.9c4.6,0,8.5-1.4,12.5-3.9l5,8.9C1080.9,202,1073.9,204.4,1066.9,204.4z M1053.4,169.7h22.6
					c0-7.5-3.4-12.3-10.5-12.3C1059.6,157.5,1054.4,161.6,1053.4,169.7z"/>
				<path id="BasedinVancouverandTokyo" class="st1" d="M48.2,270v-12.5h3.7c2.5,0,4.3,0.9,4.3,3c0,1.2-0.7,2.3-1.8,2.7v0.1
					c1.5,0.3,2.5,1.3,2.5,3c0,2.4-1.9,3.7-4.7,3.7H48.2z M49.8,262.8h1.9c2.1,0,3-0.8,3-2.1c0-1.5-1-2-2.9-2h-1.9V262.8z
					 M49.8,268.7H52c2.1,0,3.4-0.8,3.4-2.4c0-1.5-1.2-2.2-3.4-2.2h-2.2V268.7z M73,270.2c-1.5,0-2.7-1-2.7-2.6c0-2,1.8-3,5.7-3.5
					c0-1.2-0.4-2.3-1.9-2.3c-1.1,0-2,0.5-2.8,1l-0.6-1.1c0.8-0.5,2.2-1.2,3.6-1.2c2.2,0,3.2,1.5,3.2,3.8v5.7h-1.3l-0.1-1.1H76
					C75.2,269.6,74.1,270.2,73,270.2z M73.4,269c0.9,0,1.6-0.4,2.5-1.2v-2.6c-3.1,0.4-4.2,1.1-4.2,2.3C71.8,268.6,72.5,269,73.4,269
					z M94.5,270.2c-1.3,0-2.6-0.5-3.5-1.3l0.8-1c0.8,0.6,1.6,1.1,2.7,1.1c1.2,0,1.8-0.6,1.8-1.4c0-0.9-1.1-1.4-2.1-1.8
					c-1.3-0.5-2.8-1.1-2.8-2.7c0-1.5,1.2-2.6,3.2-2.6c1.1,0,2.1,0.5,2.9,1l-0.7,1c-0.6-0.5-1.3-0.8-2.1-0.8c-1.2,0-1.7,0.6-1.7,1.3
					c0,0.9,1,1.2,2,1.6c1.3,0.5,2.8,1.1,2.8,2.8C97.9,269,96.7,270.2,94.5,270.2z M115.4,270.2c-2.4,0-4.4-1.8-4.4-4.8
					c0-3,2-4.9,4.2-4.9c2.3,0,3.7,1.7,3.7,4.3c0,0.3,0,0.7-0.1,0.9h-6.2c0.1,2,1.3,3.2,3.1,3.2c0.9,0,1.6-0.3,2.3-0.7l0.6,1
					C117.6,269.8,116.7,270.2,115.4,270.2z M112.5,264.6h4.9c0-1.9-0.8-2.9-2.3-2.9C113.8,261.8,112.7,262.8,112.5,264.6z
					 M135.9,270.2c-2.3,0-3.8-1.8-3.8-4.8c0-3,1.9-4.9,4-4.9c1.1,0,1.8,0.4,2.6,1.1l-0.1-1.6v-3.6h1.5V270h-1.3l-0.2-1.1h0
					C137.9,269.6,137,270.2,135.9,270.2z M136.2,268.9c0.9,0,1.6-0.4,2.4-1.3v-4.8c-0.8-0.7-1.5-1-2.2-1c-1.5,0-2.7,1.4-2.7,3.5
					C133.7,267.6,134.6,268.9,136.2,268.9z M170.3,270v-9.2h1.5v9.2H170.3z M171.1,258.9c-0.6,0-1.1-0.4-1.1-1c0-0.6,0.5-1,1.1-1
					s1.1,0.4,1.1,1C172.2,258.4,171.7,258.9,171.1,258.9z M186.6,270v-9.2h1.3l0.1,1.3h0.1c0.9-0.9,1.8-1.6,3.1-1.6
					c1.9,0,2.8,1.3,2.8,3.6v5.8h-1.5v-5.6c0-1.7-0.5-2.5-1.8-2.5c-1,0-1.6,0.5-2.5,1.4v6.7H186.6z M220.4,270v-11.1h-3.8v-1.3h9.1
					v1.3H222V270H220.4z M241.8,270.2c-2.3,0-4.3-1.8-4.3-4.8c0-3.1,2-4.9,4.3-4.9s4.3,1.8,4.3,4.9
					C246.1,268.5,244.1,270.2,241.8,270.2z M241.8,268.9c1.6,0,2.7-1.4,2.7-3.5s-1.1-3.6-2.7-3.6c-1.6,0-2.7,1.4-2.7,3.6
					S240.2,268.9,241.8,268.9z M260.2,270v-13.5h1.5v9.2h0l4-4.9h1.7l-3.1,3.7l3.5,5.5h-1.7l-2.7-4.5l-1.7,2v2.4H260.2z M281.3,274
					c-0.4,0-0.8-0.1-1.1-0.2l0.3-1.2c0.2,0.1,0.5,0.2,0.7,0.2c1.1,0,1.7-0.9,2.1-2l0.2-0.7l-3.7-9.2h1.6l1.9,5.1
					c0.3,0.8,0.6,1.8,0.9,2.6h0.1c0.3-0.8,0.5-1.8,0.8-2.6l1.6-5.1h1.5l-3.5,10C284.1,272.6,283.2,274,281.3,274z M305.2,270.2
					c-2.3,0-4.3-1.8-4.3-4.8c0-3.1,2-4.9,4.3-4.9s4.3,1.8,4.3,4.9C309.5,268.5,307.4,270.2,305.2,270.2z M305.2,268.9
					c1.6,0,2.7-1.4,2.7-3.5s-1.1-3.6-2.7-3.6s-2.7,1.4-2.7,3.6S303.6,268.9,305.2,268.9z"/>
			</g>
		</g>
	</g>
</g>
<text transform="matrix(-1.346898e-10 1 -1 -1.346898e-10 7.9741 206.74)" class="st2 st3 st4">1988 - 2023</text>
</svg>
