<svg width="1089" height="480" viewBox="0 0 1089 480" fill="none" xmlns="http://www.w3.org/2000/svg">
<g clip-path="url(#clip0_370_66)">
<rect width="1089" height="480" fill="white"/>
<path opacity="0.1672" d="M391.2 396.6L262.3 333.7C229.5 378.6 211.1 408.2 207.3 422.6C204.6 432.9 198.5 441.5 189 448.4C179.5 455.3 172.8 458.8 168.7 458.8C157.1 458.8 151.3 454.4 151.3 445.5C151.3 440.5 158.2 426.1 172 402.3C185.8 378.5 204.8 350.4 228.9 318C215.5 312.5 207.1 308.9 203.9 307.1C200.7 305.3 199.5 301.8 200.1 296.7C200.7 291.6 204.8 283.5 212.1 272.6C218.5 263 223.3 256.6 226.5 253.3C229.7 250 233.4 247.4 237.8 245.4C242.2 243.4 246.7 242.2 251.5 241.5C256.3 240.8 269.7 239.1 291.8 236.4C309.8 212 329.3 185.7 350.4 157.4C371.5 129.1 387.9 107.2 399.8 91.4C364 96.2 339.1 100.2 324.9 103.4C309.9 106.4 297.3 108.8 287.1 110.7C276.9 112.6 269.8 114.3 265.7 115.8C261.6 117.3 259.5 119.4 259.5 122.1C259.5 124.6 262 126.3 267 127.2C272 128.1 278.3 128.6 286 128.6C293.7 128.6 299.6 128.9 303.8 129.5C308 130.1 310.1 131.4 310.1 133.4C310.1 135.7 307.3 137 301.7 137.3C296.1 137.6 280.5 138.4 254.7 139.5C240.1 140 227.9 140.4 218 140.9C208.1 141.4 201.2 141.6 197.3 141.6C192.1 141.6 188 140 185 136.8C182 133.6 180.6 129.4 180.6 124.2C180.6 120.3 182.8 113.1 187.1 102.7C191.4 92.3 197.6 81.6 205.6 70.9C213.6 60.2 222.7 51.9 232.9 45.9C244.5 38.8 262.6 31.7 287.1 24.5C311.6 17.3 338.8 11.5 368.8 7.10002C398.8 2.70002 428.4 0.400024 457.8 0.400024C475.6 0.400024 492.9 1.40002 509.9 3.50002C526.9 5.60002 542.4 8.00002 556.2 11C570 14 580.9 16.9 588.8 19.9C609.5 26.7 625.4 37.1 636.5 51C647.6 64.9 653.1 80.2 653.1 96.8C653.1 113 650.3 128.8 644.7 144.1C639.1 159.4 630.6 173.7 619.1 186.8C607.6 199.9 593.8 210.6 577.6 218.8C564.4 225.6 544.3 232.6 517.4 239.6C490.5 246.6 458 253 419.9 258.5C381.8 264 339.4 268 292.4 270.5C327.5 282.8 360.2 295.2 390.7 307.6C421.2 320 446.8 331.1 467.6 340.8C488.4 350.5 504.8 358.4 516.6 364.6C533.2 373.3 544.1 379.5 549.1 383.4C554.1 387.3 557.4 392.3 559 398.4C560.6 404.5 561.4 414.7 561.4 428.8C561.4 444.8 560.4 456.5 558.5 464.2C556.6 471.9 552.4 475.7 546 475.7C543.9 475.7 538.5 473.5 529.8 469C521.1 464.5 508.9 458.1 493.4 449.5C477.9 440.9 463.8 433.3 451.2 426.6C438.6 419.9 418.6 409.8 391.2 396.6ZM421.3 87.9C421.5 89.5 421.7 91 421.8 92.3C421.9 93.6 422 95.6 422 98.1C422 104.5 420 111.8 416 120.1C412 128.4 406.9 137 400.6 145.7C394.3 154.4 385 167 372.6 183.3C360.2 199.6 348.7 214.6 338.2 228.2C386.1 219.1 426.9 210.3 460.7 201.9C494.5 193.5 522.4 185 544.3 176.4C566.2 167.8 582.6 158.9 593.7 149.4C604.8 139.9 610.3 130.1 610.3 119.8C610.3 108.4 598.7 99.5 575.6 93C552.5 86.5 524.2 83.3 490.7 83.3C483.9 83.3 476.6 83.5 469 83.8C461.4 84.1 452.3 84.8 441.7 85.9C431.1 87 424.3 87.7 421.3 87.9ZM645.2 332.6V341.1C645.2 354.5 648.5 365 655.1 372.5C661.7 380 670.4 383.8 681.1 383.8C692.3 383.8 703.8 381.2 715.8 375.9C727.8 370.6 739.7 363.7 751.5 355.1C763.3 346.5 777.8 334.8 794.9 320.2V341C769.2 372 745 395.7 722.4 412.3C699.8 428.9 676.9 437.1 653.7 437.1C633.4 437.1 617.4 429.2 605.5 413.5C593.6 397.8 587.7 376.2 587.7 348.9C587.7 325 593.3 303.3 604.4 283.8C615.5 264.3 633.8 243.8 659.1 222.1C676.4 207.3 693.6 196.1 710.7 188.6C727.8 181.1 743.1 177.3 756.5 177.3C767.2 177.3 775.7 179.7 782 184.6C788.3 189.5 791.4 196.8 791.4 206.6C791.4 221 786 235.3 775.3 249.5C764.6 263.7 748.2 277.9 726.3 291.9C704.4 305.9 677.3 319.7 645.2 332.6ZM648.6 310.4C669.1 302.4 686.7 292.5 701.2 280.7C715.7 268.9 726.5 257.5 733.5 246.7C740.4 235.9 743.9 228 743.9 222.9C743.9 217.7 741.5 215 736.7 215C732.6 215 725.9 217.6 716.7 222.9C707.5 228.2 698.1 235 688.7 243.4C679.3 251.8 670.8 261.7 663.2 273.1C655.8 284.6 650.9 297 648.6 310.4ZM1014.7 319.7V342.6C999.7 356.3 987.6 365.4 978.5 369.9C969.4 374.4 956.3 376.3 939.2 375.4C909.6 410.5 883.5 428 860.9 428C848.1 428 836.5 423.8 826 415.4C815.5 407 807.1 395.5 800.9 380.9C794.7 366.3 791.5 350 791.5 332C791.5 317.4 796.3 301.2 806 283.5C815.7 265.8 828.2 249.1 843.6 233.8C859 218.5 875.4 206 893 196.5C910.6 187 926.8 182.3 941.9 182.3C952.6 182.3 961 184 967.2 187.3C973.4 190.6 976.4 195.2 976.4 201.1C976.4 205.7 973.8 210.9 968.5 216.8C977.2 218.6 983.1 221.6 986.3 225.9C989.5 230.2 991.1 237.8 991.1 249C991.1 259.9 988.5 273.7 983.4 290.4C978.3 307.1 971.3 322.6 962.4 337.2L968.6 343.4H973.7C977.6 343.4 981.4 342.4 985.2 340.5C989 338.6 992.3 336.5 995.3 334.3C998.3 332.1 1004.6 327.2 1014.7 319.7ZM944.3 229.8C925.4 241.2 909.2 251.5 895.8 260.7C882.4 269.9 871 279.3 861.6 288.7C852.2 298.1 846 307.7 842.8 317.2C837.1 342.7 834.3 356.5 834.3 358.6C834.3 373.6 844.8 381.2 865.7 381.2C875.5 381.2 891.9 372.8 914.9 355.9C911 345.2 909.1 334.9 909.1 325.1C909.1 310.7 912.1 296.1 918 281.2C923.9 266.3 932.6 249.1 944.3 229.8Z" fill="#C5C5C5"/>
<path d="M913.3 36.5L912.4 36.9C912.1 36.2 911.5 35.3 911.1 34.7L912 34.3C912.4 34.8 913 35.8 913.3 36.5ZM909.7 36.9H904.1C903.6 36.9 903 36.9 902.6 36.9V35.6C903.1 35.6 903.6 35.7 904.1 35.7H909.7C910.2 35.7 910.7 35.7 911.2 35.6V36.9C910.7 36.9 910.1 36.9 909.7 36.9ZM902.1 39.7H912.6C912.9 39.7 913.5 39.7 913.9 39.6V40.9C913.5 40.9 913 40.9 912.6 40.9H908.2C908.2 42.6 907.9 44.1 907.2 45.3C906.6 46.4 905.4 47.5 904 48.2L902.8 47.3C904.1 46.8 905.2 45.8 905.8 44.8C906.5 43.7 906.7 42.3 906.7 40.8H901.9C901.4 40.8 900.9 40.8 900.5 40.8V39.5C901.2 39.7 901.6 39.7 902.1 39.7ZM912.9 34L913.8 33.6C914.2 34.2 914.8 35.2 915.2 35.8L914.3 36.2C913.9 35.5 913.4 34.6 912.9 34ZM913.1 73.3L912.3 73.6C912.1 72.9 911.7 71.9 911.4 71.3L912.2 71.1C912.5 71.6 912.9 72.6 913.1 73.3ZM910.7 74.4H912.5C913.2 74.4 913.8 74.4 914 74.3V75.7C913.8 75.7 913.2 75.7 912.5 75.7H910.7V76.3C910.7 80.6 909.8 82.8 906.1 84.5L905 83.5C907.9 82.4 909.4 81 909.4 76.5V75.8H904.8V78.4C904.8 79 904.8 79.7 904.9 79.9H903.5C903.5 79.8 903.6 79.1 903.6 78.4V75.8H901.9C901.2 75.8 900.5 75.8 900.3 75.8V74.4C900.4 74.4 901.2 74.5 901.9 74.5H903.6V72.4C903.6 71.9 903.6 71.4 903.5 71.2H904.9C904.9 71.3 904.8 71.8 904.8 72.4V74.5H909.4V72.5C909.4 71.9 909.4 71.3 909.3 71.2H910.8C910.8 71.4 910.7 71.9 910.7 72.5V74.4ZM913 70.8L913.8 70.6C914.1 71.2 914.5 72.2 914.8 72.8L914 73.1C913.7 72.3 913.3 71.4 913 70.8ZM912.2 106.8L913.3 107.8C912.2 108.9 910.6 110.2 909 111.3V118.2C909 118.8 909 119.6 909.1 119.9H907.5C907.5 119.6 907.6 118.8 907.6 118.2V112C905.9 113 903.7 113.9 901.5 114.5L900.8 113.2C903.5 112.6 906.2 111.3 908 110.2C909.6 109.3 911.3 107.9 912.2 106.8ZM903 143.5C904.1 144.3 906.2 145.9 907.1 146.8L906.1 147.8C905.3 147 903.3 145.2 902.1 144.4L903 143.5ZM901.6 154.3C904.4 153.9 906.5 152.9 908 151.9C910.5 150.3 912.4 148 913.4 146L914.2 147.4C913.1 149.4 911.2 151.6 908.8 153.1C907.2 154.1 905.2 155.1 902.5 155.6L901.6 154.3ZM915 179.9L914.1 180.3C913.7 179.6 913.2 178.7 912.8 178.1L913.7 177.7C914.1 178.3 914.7 179.3 915 179.9ZM913.2 180.6L912.3 181C912 180.4 911.4 179.4 911 178.8L911.9 178.4C912.3 178.9 912.9 179.9 913.2 180.6ZM904.7 178.7L906.2 178.8C906.1 179.1 906.1 179.4 906 179.8C905.9 180.3 905.8 181.2 905.6 182.1C906.3 182 907 182 907.4 182C908.8 182 910 182.6 910 184.7C910 186.6 909.7 189.1 909.1 190.5C908.6 191.6 907.8 191.8 906.8 191.8C906.2 191.8 905.4 191.7 904.9 191.6L904.7 190.2C905.4 190.4 906.2 190.6 906.7 190.6C907.3 190.6 907.7 190.5 908.1 189.8C908.6 188.7 908.9 186.7 908.9 184.9C908.9 183.4 908.2 183.2 907.2 183.2C906.8 183.2 906.2 183.2 905.5 183.3C904.9 185.6 903.8 189.2 902.1 191.9L900.8 191.4C902.4 189.2 903.6 185.6 904.2 183.5C903.4 183.6 902.6 183.7 902.2 183.7C901.8 183.7 901.2 183.8 900.8 183.9L900.7 182.5C901.2 182.5 901.6 182.5 902.1 182.5C902.6 182.5 903.6 182.4 904.5 182.3C904.5 181.1 904.7 179.8 904.7 178.7ZM910.5 181.2L911.7 180.7C912.7 182 914.1 184.9 914.6 186.4L913.4 187C912.9 185.3 911.6 182.5 910.5 181.2ZM906.6 214.4H907.9C907.9 214.6 907.9 214.9 907.9 215.1C908 217.2 908.9 224.7 915 227.4C914.7 227.7 914.3 228.1 914.1 228.4C909.9 226.4 908.2 222.3 907.4 219.1C906.7 222.3 905 226.2 901 228.4C900.8 228.1 900.4 227.7 900 227.5C906.5 224.2 906.5 216.5 906.6 214.4ZM908.1 262.9H914.6V264.1H900.3V262.9H906.8V258.8H902V257.6H906.8V254.1H903C902.5 255.1 901.9 256 901.3 256.7C901.1 256.5 900.5 256.2 900.2 256C901.5 254.6 902.6 252.4 903.2 250.1L904.4 250.4C904.1 251.3 903.9 252.2 903.5 253H906.8V249.9H908V253H913.8V254.2H908V257.7H913.2V258.9H908V262.9H908.1ZM908.9 297.2H907.7C907.7 296.6 907.8 295.6 907.8 294.7C906.3 295.5 905.3 296.3 905.3 297.4C905.3 298.7 906.5 298.8 908.2 298.8C909.4 298.8 911.1 298.7 912.6 298.4V299.7C911.4 299.8 909.6 300 908.2 300C905.9 300 904.1 299.5 904.1 297.6C904.1 295.7 906 294.5 907.9 293.6C907.7 292.9 907.2 292.6 906.5 292.6C905.5 292.6 904.5 293.1 903.7 293.8C903.2 294.2 902.8 294.8 902.2 295.5L901.1 294.7C903.1 292.7 904.2 291.1 904.8 289.8H904.1C903.4 289.8 902.3 289.8 901.5 289.7V288.5C902.4 288.6 903.5 288.7 904.2 288.7C904.5 288.7 904.9 288.7 905.2 288.7C905.4 288 905.6 287.3 905.6 286.7L906.9 286.8C906.8 287.3 906.6 287.9 906.4 288.6C908 288.5 909.8 288.4 911.3 288.1V289.3C909.7 289.5 907.8 289.7 906 289.8C905.6 290.6 905.1 291.5 904.6 292.2C905.2 291.8 906.1 291.6 906.8 291.6C907.8 291.6 908.7 292.1 908.9 293.1C910 292.6 911 292.2 911.8 291.8C912.3 291.6 912.7 291.4 913.1 291.2L913.6 292.4C913.2 292.5 912.6 292.7 912.2 292.9C911.3 293.3 910.2 293.7 908.9 294.3C908.9 295 908.9 296.4 908.9 297.2ZM906.9 327.6H902.7V328.5H906.9V327.6ZM902.7 330.2H906.9V329.3H902.7C902.7 329.6 902.7 329.9 902.7 330.2ZM907.2 333.1H903.5V335H907.2V333.1ZM908 331.1H902.6C902.6 331.4 902.5 331.8 902.5 332.1H908.3V336.4H907.2V335.9H903.5V336.6H902.5V332.4C902.2 333.8 901.7 335.2 900.8 336.3C900.7 336.1 900.2 335.7 900 335.6C901.5 333.8 901.7 331.3 901.7 329.4V326.8H908.1V331.1H908ZM904.2 322H905.3C906.5 322.9 908 324.2 908.8 325L908 326C907.3 325.2 906 324 904.9 323.1C904.4 323.7 903.9 324.3 903.2 325H906.9V325.9H903V325.2C902.3 325.8 901.5 326.5 900.7 327C900.6 326.8 900.2 326.4 899.9 326.2C901.9 325 903.4 323.3 904.2 322ZM910.5 323.8V332.7H909.4V323.8H910.5ZM912.9 322.2H914.1V335C914.1 335.8 913.9 336.2 913.4 336.4C912.9 336.6 912 336.6 910.6 336.6C910.6 336.3 910.4 335.7 910.2 335.4C911.3 335.4 912.2 335.4 912.6 335.4C912.9 335.4 913 335.3 913 335V322.2H912.9ZM902 364.9C902.5 364.8 903 364.7 903.5 364.5C904.6 364.1 907.3 363.2 909.1 363.2C911.4 363.2 913 364.6 913 366.7C913 369.8 910 371.4 905.7 371.6L905.2 370.4C908.6 370.3 911.7 369.3 911.7 366.7C911.7 365.3 910.6 364.4 909 364.4C907 364.4 903.5 365.9 902.5 366.3L902 364.9ZM900.8 396.6C901.4 396.6 901.9 396.6 902.2 396.5C903.2 396.4 906.3 396.1 909.2 395.9C910.9 395.8 912.4 395.7 913.5 395.6V396.9C912.6 396.9 911.2 396.9 910.4 397.2C908.1 397.9 906.8 400.3 906.8 402.2C906.8 405.3 909.7 406.3 912.3 406.4L911.8 407.7C908.9 407.6 905.5 406 905.5 402.4C905.5 399.9 907 397.9 908.5 397C907.1 397.2 902.7 397.6 901 397.9L900.8 396.6ZM903 432.1C902.9 432.5 902.9 433.2 902.9 433.6C902.9 434.6 902.9 436.1 903 437.4C903.3 440.1 904 441.8 905.2 441.8C906 441.8 906.8 440.2 907.2 438.5L908.2 439.7C907.2 442.4 906.3 443.3 905.2 443.3C903.7 443.3 902.3 441.8 901.8 437.7C901.6 436.3 901.6 434.4 901.6 433.4C901.6 433 901.6 432.4 901.5 432L903 432.1ZM911.3 432.6C912.7 434.5 913.9 437.7 914.1 440.4L912.8 440.9C912.5 438 911.6 434.9 910 433L911.3 432.6ZM907.4 478.8C907.9 478.8 908.3 478.8 908.7 478.7C908.6 477.4 907.8 476.6 906.6 476.6C905.9 476.6 905.3 477 905.3 477.6C905.3 478.4 906.2 478.8 907.4 478.8ZM910.7 467.2L911.4 468.1C911.1 468.3 910.8 468.5 910.5 468.7C909.7 469.3 907.6 471.2 906.3 472.2C907 472 907.8 471.9 908.5 471.9C911.2 471.9 913.1 473.5 913.1 475.7C913.1 478.3 911 480 907.6 480C905.4 480 904.1 479 904.1 477.7C904.1 476.6 905.1 475.6 906.6 475.6C908.6 475.6 909.7 476.9 909.9 478.4C911.2 477.9 911.9 477 911.9 475.7C911.9 474.1 910.3 473 908.3 473C905.7 473 904.2 474.1 902.2 476.2L901.3 475.2C902.6 474.1 904.7 472.4 905.6 471.6C906.5 470.9 908.5 469.2 909.3 468.5C908.5 468.5 905.3 468.7 904.5 468.7C904.1 468.7 903.8 468.7 903.4 468.8V467.5C903.8 467.5 904.2 467.5 904.5 467.5C905.3 467.5 909.1 467.4 909.9 467.3C910.3 467.3 910.5 467.3 910.7 467.2Z" fill="#1A1A1A"/>
<path d="M941 14.2C941 9.50001 944.8 5.70001 949.5 5.70001C954.2 5.70001 958 9.50001 958 14.2C958 18.9 954.2 22.7 949.5 22.7C944.8 22.7 941 18.9 941 14.2ZM949.5 6.40001C945.2 6.40001 941.7 9.90001 941.7 14.2C941.7 18.5 945.2 22 949.5 22C953.8 22 957.3 18.5 957.3 14.2C957.3 9.90001 953.9 6.40001 949.5 6.40001ZM957.9 37.3L942.5 46.2V28.4L957.9 37.3ZM956.3 37.3L943.4 29.9V44.8L956.3 37.3ZM957.1 52.8V67.9H942V52.8H957.1ZM956.4 53.5H942.7V67.2H956.4V53.5Z" fill="#1A1A1A"/>
<path d="M9.91912 209.336C9.91912 209.255 9.96312 209.215 10.0511 209.215L17.0581 209.215L16.1341 207.565C16.0975 207.492 16.1195 207.437 16.2001 207.4L16.4531 207.257C16.5118 207.206 16.5668 207.217 16.6181 207.29L18.4001 209.402C18.4368 209.439 18.4551 209.49 18.4551 209.556L18.4551 210.062C18.4551 210.143 18.4148 210.183 18.3341 210.183L10.0511 210.183C9.96312 210.183 9.91912 210.143 9.91912 210.062L9.91912 209.336ZM9.91912 213.987C9.91912 213.943 9.93379 213.914 9.96312 213.899C9.99245 213.884 10.0291 213.892 10.0731 213.921L13.2631 216.297C13.0578 215.938 12.9551 215.523 12.9551 215.054C12.9551 214.519 13.0725 214.046 13.3071 213.635C13.5418 213.224 13.8681 212.905 14.2861 212.678C14.7115 212.451 15.2065 212.337 15.7711 212.337C16.3431 212.337 16.8418 212.458 17.2671 212.7C17.6925 212.949 18.0225 213.294 18.2571 213.734C18.4991 214.174 18.6201 214.684 18.6201 215.263C18.6201 215.85 18.4955 216.359 18.2461 216.792C18.0041 217.232 17.6631 217.573 17.2231 217.815C16.7905 218.064 16.2881 218.189 15.7161 218.189C15.3788 218.189 15.0451 218.141 14.7151 218.046C14.3851 217.958 14.0295 217.808 13.6481 217.595C13.2668 217.382 12.8268 217.089 12.3281 216.715L9.99612 214.977C9.94479 214.94 9.91912 214.893 9.91912 214.834L9.91912 213.987ZM13.8131 215.274C13.8131 215.846 13.9855 216.304 14.3301 216.649C14.6821 217.001 15.1551 217.177 15.7491 217.177C16.3358 217.177 16.8015 217.001 17.1461 216.649C17.4908 216.304 17.6631 215.846 17.6631 215.274C17.6631 214.695 17.4908 214.229 17.1461 213.877C16.8015 213.525 16.3358 213.349 15.7491 213.349C15.1551 213.349 14.6821 213.525 14.3301 213.877C13.9855 214.229 13.8131 214.695 13.8131 215.274ZM9.75412 222.745C9.75412 222.151 9.85679 221.623 10.0621 221.161C10.2748 220.707 10.5681 220.347 10.9421 220.083C11.3235 219.819 11.7598 219.687 12.2511 219.687C12.7645 219.687 13.2155 219.841 13.6041 220.149C13.9928 220.465 14.2678 220.886 14.4291 221.414C14.5905 220.967 14.8435 220.608 15.1881 220.336C15.5401 220.072 15.9361 219.94 16.3761 219.94C16.8161 219.94 17.2048 220.061 17.5421 220.303C17.8795 220.545 18.1435 220.875 18.3341 221.293C18.5248 221.719 18.6201 222.203 18.6201 222.745C18.6201 223.295 18.5248 223.779 18.3341 224.197C18.1435 224.623 17.8795 224.953 17.5421 225.187C17.2048 225.429 16.8161 225.55 16.3761 225.55C15.9361 225.55 15.5401 225.415 15.1881 225.143C14.8435 224.879 14.5905 224.52 14.4291 224.065C14.2678 224.586 13.9928 225.004 13.6041 225.319C13.2155 225.642 12.7645 225.803 12.2511 225.803C11.7598 225.803 11.3271 225.671 10.9531 225.407C10.5791 225.151 10.2858 224.791 10.0731 224.329C9.86045 223.867 9.75412 223.339 9.75412 222.745ZM14.7811 222.745C14.7811 223.273 14.9205 223.706 15.1991 224.043C15.4778 224.381 15.8335 224.549 16.2661 224.549C16.5448 224.549 16.7941 224.472 17.0141 224.318C17.2341 224.164 17.4065 223.952 17.5311 223.68C17.6631 223.409 17.7291 223.097 17.7291 222.745C17.7291 222.393 17.6631 222.082 17.5311 221.81C17.4065 221.539 17.2341 221.326 17.0141 221.172C16.7941 221.018 16.5448 220.941 16.2661 220.941C15.8335 220.941 15.4778 221.11 15.1991 221.447C14.9205 221.785 14.7811 222.217 14.7811 222.745ZM10.6561 222.745C10.6561 223.149 10.7295 223.504 10.8761 223.812C11.0228 224.12 11.2208 224.362 11.4701 224.538C11.7268 224.714 12.0201 224.802 12.3501 224.802C12.6728 224.802 12.9588 224.714 13.2081 224.538C13.4575 224.362 13.6518 224.12 13.7911 223.812C13.9378 223.504 14.0111 223.149 14.0111 222.745C14.0111 222.349 13.9378 221.994 13.7911 221.678C13.6518 221.37 13.4575 221.128 13.2081 220.952C12.9588 220.776 12.6728 220.688 12.3501 220.688C12.0201 220.688 11.7268 220.776 11.4701 220.952C11.2208 221.128 11.0228 221.37 10.8761 221.678C10.7295 221.994 10.6561 222.349 10.6561 222.745ZM9.75412 230.394C9.75412 229.8 9.85679 229.272 10.0621 228.81C10.2748 228.355 10.5681 227.996 10.9421 227.732C11.3235 227.468 11.7598 227.336 12.2511 227.336C12.7645 227.336 13.2155 227.49 13.6041 227.798C13.9928 228.113 14.2678 228.535 14.4291 229.063C14.5905 228.615 14.8435 228.256 15.1881 227.985C15.5401 227.721 15.9361 227.589 16.3761 227.589C16.8161 227.589 17.2048 227.71 17.5421 227.952C17.8795 228.194 18.1435 228.524 18.3341 228.942C18.5248 229.367 18.6201 229.851 18.6201 230.394C18.6201 230.944 18.5248 231.428 18.3341 231.846C18.1435 232.271 17.8795 232.601 17.5421 232.836C17.2048 233.078 16.8161 233.199 16.3761 233.199C15.9361 233.199 15.5401 233.063 15.1881 232.792C14.8435 232.528 14.5905 232.168 14.4291 231.714C14.2678 232.234 13.9928 232.652 13.6041 232.968C13.2155 233.29 12.7645 233.452 12.2511 233.452C11.7598 233.452 11.3271 233.32 10.9531 233.056C10.5791 232.799 10.2858 232.44 10.0731 231.978C9.86045 231.516 9.75412 230.988 9.75412 230.394ZM14.7811 230.394C14.7811 230.922 14.9205 231.354 15.1991 231.692C15.4778 232.029 15.8335 232.198 16.2661 232.198C16.5448 232.198 16.7941 232.121 17.0141 231.967C17.2341 231.813 17.4065 231.6 17.5311 231.329C17.6631 231.057 17.7291 230.746 17.7291 230.394C17.7291 230.042 17.6631 229.73 17.5311 229.459C17.4065 229.187 17.2341 228.975 17.0141 228.821C16.7941 228.667 16.5448 228.59 16.2661 228.59C15.8335 228.59 15.4778 228.758 15.1991 229.096C14.9205 229.433 14.7811 229.866 14.7811 230.394ZM10.6561 230.394C10.6561 230.797 10.7295 231.153 10.8761 231.461C11.0228 231.769 11.2208 232.011 11.4701 232.187C11.7268 232.363 12.0201 232.451 12.3501 232.451C12.6728 232.451 12.9588 232.363 13.2081 232.187C13.4575 232.011 13.6518 231.769 13.7911 231.461C13.9378 231.153 14.0111 230.797 14.0111 230.394C14.0111 229.998 13.9378 229.642 13.7911 229.327C13.6518 229.019 13.4575 228.777 13.2081 228.601C12.9588 228.425 12.6728 228.337 12.3501 228.337C12.0201 228.337 11.7268 228.425 11.4701 228.601C11.2208 228.777 11.0228 229.019 10.8761 229.327C10.7295 229.642 10.6561 229.998 10.6561 230.394ZM13.0431 239.205C13.0431 239.124 13.0835 239.084 13.1641 239.084L13.8131 239.084C13.8938 239.084 13.9341 239.124 13.9341 239.205L13.9341 242.626C13.9341 242.707 13.8938 242.747 13.8131 242.747L13.1641 242.747C13.0835 242.747 13.0431 242.707 13.0431 242.626L13.0431 239.205ZM9.91912 248.353C9.91912 248.265 9.96312 248.221 10.0511 248.221L10.2601 248.221C10.2895 248.221 10.3151 248.228 10.3371 248.243C10.3591 248.258 10.3811 248.272 10.4031 248.287L12.7021 250.355C13.2081 250.817 13.6371 251.191 13.9891 251.477C14.3485 251.763 14.6565 251.983 14.9131 252.137C15.1771 252.291 15.4118 252.394 15.6171 252.445C15.8298 252.504 16.0461 252.533 16.2661 252.533C16.6988 252.533 17.0398 252.383 17.2891 252.082C17.5385 251.781 17.6631 251.393 17.6631 250.916C17.6631 250.469 17.5458 250.084 17.3111 249.761C17.0838 249.446 16.7465 249.215 16.2991 249.068C16.2258 249.031 16.2001 248.98 16.2221 248.914L16.4091 248.221C16.4238 248.14 16.4751 248.111 16.5631 248.133C17.2158 248.346 17.7218 248.694 18.0811 249.178C18.4405 249.669 18.6201 250.26 18.6201 250.949C18.6201 251.462 18.5248 251.91 18.3341 252.291C18.1435 252.68 17.8795 252.98 17.5421 253.193C17.2048 253.413 16.8088 253.523 16.3541 253.523C16.0828 253.523 15.8115 253.494 15.5401 253.435C15.2761 253.376 14.9865 253.263 14.6711 253.094C14.3631 252.925 14.0001 252.676 13.5821 252.346C13.1715 252.023 12.6838 251.591 12.1191 251.048L10.8431 249.838L10.8431 253.743C10.8431 253.824 10.8028 253.864 10.7221 253.864L10.0511 253.864C9.96312 253.864 9.91912 253.824 9.91912 253.743L9.91912 248.353ZM9.75412 258.671C9.75412 258.011 9.93012 257.443 10.2821 256.966C10.6341 256.497 11.1401 256.134 11.8001 255.877C12.4675 255.628 13.2631 255.503 14.1871 255.503C15.1185 255.503 15.9141 255.628 16.5741 255.877C17.2341 256.134 17.7401 256.497 18.0921 256.966C18.4441 257.443 18.6201 258.011 18.6201 258.671C18.6201 259.331 18.4441 259.896 18.0921 260.365C17.7401 260.842 17.2341 261.205 16.5741 261.454C15.9141 261.703 15.1185 261.828 14.1871 261.828C13.2631 261.828 12.4675 261.703 11.8001 261.454C11.1401 261.205 10.6341 260.842 10.2821 260.365C9.93012 259.896 9.75412 259.331 9.75412 258.671ZM10.7111 258.671C10.7111 259.346 11.0045 259.87 11.5911 260.244C12.1778 260.625 13.0431 260.816 14.1871 260.816C15.3311 260.816 16.1965 260.625 16.7831 260.244C17.3698 259.87 17.6631 259.346 17.6631 258.671C17.6631 257.989 17.3698 257.457 16.7831 257.076C16.1965 256.702 15.3311 256.515 14.1871 256.515C13.0431 256.515 12.1778 256.702 11.5911 257.076C11.0045 257.457 10.7111 257.989 10.7111 258.671ZM9.91912 263.661C9.91912 263.573 9.96312 263.529 10.0511 263.529L10.2601 263.529C10.2895 263.529 10.3151 263.536 10.3371 263.551C10.3591 263.565 10.3811 263.58 10.4031 263.595L12.7021 265.663C13.2081 266.125 13.6371 266.499 13.9891 266.785C14.3485 267.071 14.6565 267.291 14.9131 267.445C15.1771 267.599 15.4118 267.701 15.6171 267.753C15.8298 267.811 16.0461 267.841 16.2661 267.841C16.6988 267.841 17.0398 267.69 17.2891 267.39C17.5385 267.089 17.6631 266.7 17.6631 266.224C17.6631 265.776 17.5458 265.391 17.3111 265.069C17.0838 264.753 16.7465 264.522 16.2991 264.376C16.2258 264.339 16.2001 264.288 16.2221 264.222L16.4091 263.529C16.4238 263.448 16.4751 263.419 16.5631 263.441C17.2158 263.653 17.7218 264.002 18.0811 264.486C18.4405 264.977 18.6201 265.567 18.6201 266.257C18.6201 266.77 18.5248 267.217 18.3341 267.599C18.1435 267.987 17.8795 268.288 17.5421 268.501C17.2048 268.721 16.8088 268.831 16.3541 268.831C16.0828 268.831 15.8115 268.801 15.5401 268.743C15.2761 268.684 14.9865 268.57 14.6711 268.402C14.3631 268.233 14.0001 267.984 13.5821 267.654C13.1715 267.331 12.6838 266.898 12.1191 266.356L10.8431 265.146L10.8431 269.051C10.8431 269.131 10.8028 269.172 10.7221 269.172L10.0511 269.172C9.96312 269.172 9.91912 269.131 9.91912 269.051L9.91912 263.661ZM9.75412 273.616C9.75412 273.036 9.87512 272.527 10.1171 272.087C10.3665 271.647 10.7075 271.306 11.1401 271.064C11.5801 270.822 12.0825 270.701 12.6471 270.701C12.9918 270.701 13.3255 270.745 13.6481 270.833C13.9781 270.921 14.3338 271.067 14.7151 271.273C15.1038 271.485 15.5511 271.771 16.0571 272.131L18.3781 273.781C18.4295 273.81 18.4551 273.858 18.4551 273.924L18.4551 274.782C18.4551 274.826 18.4368 274.855 18.4001 274.87C18.3708 274.884 18.3378 274.877 18.3011 274.848L15.0891 272.549C15.3165 272.923 15.4301 273.352 15.4301 273.836C15.4301 274.371 15.3091 274.84 15.0671 275.244C14.8325 275.654 14.5025 275.973 14.0771 276.201C13.6591 276.428 13.1715 276.542 12.6141 276.542C12.0495 276.542 11.5508 276.417 11.1181 276.168C10.6855 275.926 10.3481 275.585 10.1061 275.145C9.87145 274.712 9.75412 274.202 9.75412 273.616ZM10.7111 273.616C10.7111 274.195 10.8871 274.657 11.2391 275.002C11.5911 275.346 12.0568 275.519 12.6361 275.519C13.2228 275.519 13.6885 275.346 14.0331 275.002C14.3851 274.657 14.5611 274.195 14.5611 273.616C14.5611 273.036 14.3851 272.571 14.0331 272.219C13.6885 271.867 13.2228 271.691 12.6361 271.691C12.0568 271.691 11.5911 271.867 11.2391 272.219C10.8871 272.571 10.7111 273.036 10.7111 273.616Z" fill="black"/>
<path d="M38.292 278.404C37.4333 278.404 37.004 277.975 37.004 277.116V206.552C37.004 205.693 37.4333 205.264 38.292 205.264H62.58C74.724 205.264 83.924 208.484 90.18 214.924C96.436 221.364 99.564 230.349 99.564 241.88C99.564 253.349 96.436 262.304 90.18 268.744C83.924 275.184 74.724 278.404 62.58 278.404H38.292ZM61.108 265.708C69.204 265.708 75.3067 263.653 79.416 259.544C83.5253 255.373 85.58 249.485 85.58 241.88C85.58 234.213 83.5253 228.325 79.416 224.216C75.3067 220.045 69.204 217.96 61.108 217.96H50.436V265.708H61.108ZM134.998 279.416C129.6 279.416 124.939 278.251 121.014 275.92C117.088 273.651 114.083 270.523 111.998 266.536C109.912 262.488 108.87 257.857 108.87 252.644C108.87 247.369 109.912 242.739 111.998 238.752C114.083 234.704 117.088 231.545 121.014 229.276C124.939 226.945 129.6 225.78 134.998 225.78C140.272 225.78 144.75 227.007 148.43 229.46C152.171 231.913 154.962 235.348 156.802 239.764C158.703 244.18 159.562 249.363 159.378 255.312C159.255 256.171 158.795 256.6 157.998 256.6H122.67C123.283 260.157 124.632 262.948 126.718 264.972C128.864 266.935 131.655 267.916 135.09 267.916C140.242 267.916 144.014 265.953 146.406 262.028C146.835 261.476 147.418 261.292 148.154 261.476L156.986 264.512C157.844 264.88 158.09 265.463 157.722 266.26C155.452 270.737 152.294 274.049 148.246 276.196C144.198 278.343 139.782 279.416 134.998 279.416ZM145.578 246.94C144.964 243.873 143.707 241.512 141.806 239.856C139.966 238.139 137.666 237.28 134.906 237.28C131.9 237.28 129.324 238.139 127.178 239.856C125.092 241.512 123.651 243.873 122.854 246.94H145.578ZM187.538 279.416C181.957 279.416 177.234 278.22 173.37 275.828C169.506 273.497 166.746 270.093 165.09 265.616C165.029 265.493 164.998 265.34 164.998 265.156C164.998 264.604 165.336 264.236 166.01 264.052L175.486 261.476C176.1 261.476 176.498 261.783 176.682 262.396C177.909 264.481 179.381 265.923 181.098 266.72C182.877 267.517 184.87 267.916 187.078 267.916C189.225 267.916 191.004 267.671 192.414 267.18C193.886 266.628 194.622 265.616 194.622 264.144C194.622 263.04 194.009 262.151 192.782 261.476C191.617 260.74 189.685 259.973 186.986 259.176L184.502 258.44C178.308 256.661 173.892 254.3 171.254 251.356C168.617 248.351 167.298 244.885 167.298 240.96C167.298 238.016 168.126 235.409 169.782 233.14C171.438 230.809 173.738 229 176.682 227.712C179.688 226.424 183.122 225.78 186.986 225.78C191.954 225.78 196.156 226.853 199.59 229C203.086 231.147 205.601 234.397 207.134 238.752C207.257 238.997 207.318 239.212 207.318 239.396C207.318 239.887 207.012 240.193 206.398 240.316L197.29 243.26C197.168 243.321 196.984 243.352 196.738 243.352C196.309 243.352 195.941 243.076 195.634 242.524C194.714 240.929 193.549 239.672 192.138 238.752C190.728 237.771 188.918 237.28 186.71 237.28C185.054 237.28 183.613 237.556 182.386 238.108C181.221 238.66 180.638 239.611 180.638 240.96C180.638 242.125 181.252 243.107 182.478 243.904C183.766 244.701 185.821 245.437 188.642 246.112L191.034 246.756C197.413 248.289 201.829 250.467 204.282 253.288C206.736 256.048 207.962 259.575 207.962 263.868C207.962 266.996 207.073 269.725 205.294 272.056C203.577 274.387 201.185 276.196 198.118 277.484C195.052 278.772 191.525 279.416 187.538 279.416ZM224.271 217.592C222.125 217.592 220.315 216.948 218.843 215.66C217.433 214.311 216.727 212.563 216.727 210.416C216.727 208.269 217.433 206.552 218.843 205.264C220.315 203.915 222.125 203.24 224.271 203.24C226.418 203.24 228.197 203.915 229.607 205.264C231.079 206.552 231.815 208.269 231.815 210.416C231.815 212.563 231.079 214.311 229.607 215.66C228.197 216.948 226.418 217.592 224.271 217.592ZM217.831 228.08C217.831 227.221 218.261 226.792 219.119 226.792H229.699C230.558 226.792 230.987 227.221 230.987 228.08V277.024C230.987 277.944 230.558 278.404 229.699 278.404H219.119C218.261 278.404 217.831 277.944 217.831 277.024V228.08ZM267.335 301.128C261.815 301.128 256.817 299.871 252.339 297.356C247.923 294.903 244.703 291.223 242.679 286.316C242.557 285.948 242.495 285.733 242.495 285.672C242.495 285.181 242.802 284.844 243.415 284.66L251.787 281.624C252.033 281.501 252.217 281.44 252.339 281.44C252.769 281.44 253.137 281.716 253.443 282.268C254.67 284.415 256.357 286.132 258.503 287.42C260.65 288.708 263.441 289.352 266.875 289.352C269.574 289.352 272.027 288.923 274.235 288.064C276.505 287.267 278.314 285.948 279.663 284.108C281.013 282.268 281.687 279.845 281.687 276.84V272.148C279.786 274.417 277.455 276.196 274.695 277.484C271.935 278.772 268.838 279.416 265.403 279.416C260.497 279.416 256.234 278.281 252.615 276.012C248.997 273.743 246.206 270.615 244.243 266.628C242.281 262.58 241.299 257.919 241.299 252.644C241.299 247.308 242.281 242.647 244.243 238.66C246.206 234.612 248.997 231.453 252.615 229.184C256.234 226.915 260.497 225.78 265.403 225.78C269.022 225.78 272.273 226.516 275.155 227.988C278.038 229.399 280.399 231.361 282.239 233.876L282.607 228.08C282.607 227.221 283.067 226.792 283.987 226.792H293.279C294.199 226.792 294.659 227.221 294.659 228.08V275.552C294.659 281.011 293.494 285.641 291.163 289.444C288.894 293.247 285.705 296.129 281.595 298.092C277.486 300.116 272.733 301.128 267.335 301.128ZM254.639 252.644C254.639 257.06 255.927 260.679 258.503 263.5C261.141 266.26 264.514 267.64 268.623 267.64C272.794 267.64 276.167 266.26 278.743 263.5C281.319 260.679 282.607 257.06 282.607 252.644C282.607 248.167 281.319 244.548 278.743 241.788C276.167 238.967 272.794 237.556 268.623 237.556C264.514 237.556 261.141 238.967 258.503 241.788C255.927 244.548 254.639 248.167 254.639 252.644ZM309.502 278.404C308.644 278.404 308.214 277.975 308.214 277.116V228.08C308.214 227.221 308.644 226.792 309.502 226.792H318.886C319.806 226.792 320.266 227.221 320.266 228.08L320.542 233.968C322.444 231.208 324.897 229.153 327.902 227.804C330.908 226.455 334.066 225.78 337.378 225.78C343.389 225.78 348.02 227.467 351.27 230.84C354.582 234.213 356.238 238.875 356.238 244.824V277.116C356.238 277.975 355.809 278.404 354.95 278.404H344.554C343.696 278.404 343.266 277.975 343.266 277.116V250.068C343.266 245.775 342.469 242.616 340.874 240.592C339.28 238.568 336.796 237.556 333.422 237.556C331.337 237.556 329.344 238.077 327.442 239.12C325.541 240.163 324.008 241.757 322.842 243.904C321.677 246.051 321.094 248.78 321.094 252.092V277.116C321.094 277.975 320.665 278.404 319.806 278.404H309.502ZM424.573 279.416C419.175 279.416 414.483 278.281 410.497 276.012C406.51 273.743 403.443 270.615 401.297 266.628C399.15 262.58 398.077 257.919 398.077 252.644C398.077 247.308 399.15 242.647 401.297 238.66C403.505 234.612 406.571 231.453 410.497 229.184C414.483 226.915 419.145 225.78 424.481 225.78C430.307 225.78 435.183 227.007 439.109 229.46C443.095 231.913 446.039 235.685 447.941 240.776C448.002 240.899 448.033 241.052 448.033 241.236C448.033 241.849 447.695 242.248 447.021 242.432L438.005 245.008C437.575 245.008 437.146 244.701 436.717 244.088C434.386 239.733 430.583 237.556 425.309 237.556C422.181 237.556 419.574 238.261 417.489 239.672C415.465 241.021 413.931 242.831 412.889 245.1C411.907 247.369 411.417 249.884 411.417 252.644C411.417 255.343 411.907 257.827 412.889 260.096C413.931 262.365 415.465 264.205 417.489 265.616C419.574 266.965 422.181 267.64 425.309 267.64C428.007 267.64 430.338 267.057 432.301 265.892C434.263 264.727 435.766 263.009 436.809 260.74C437.361 260.004 437.943 259.759 438.557 260.004L448.033 262.304C448.891 262.488 449.137 263.009 448.769 263.868C446.745 269.204 443.617 273.129 439.385 275.644C435.214 278.159 430.277 279.416 424.573 279.416ZM459.991 278.404C459.132 278.404 458.703 277.975 458.703 277.116V228.08C458.703 227.221 459.132 226.792 459.991 226.792H469.375C470.295 226.792 470.755 227.221 470.755 228.08L471.031 234.52C472.809 231.76 475.109 229.675 477.931 228.264C480.752 226.792 483.696 226.056 486.763 226.056C487.499 226.056 488.143 226.087 488.695 226.148C489.247 226.209 489.768 226.301 490.259 226.424C490.995 226.608 491.363 227.068 491.363 227.804V238.016C491.363 238.752 490.995 239.12 490.259 239.12C489.584 239.12 488.817 239.059 487.959 238.936C487.161 238.813 486.241 238.752 485.199 238.752C482.868 238.752 480.66 239.273 478.575 240.316C476.489 241.297 474.803 242.769 473.515 244.732C472.227 246.633 471.583 248.964 471.583 251.724V277.116C471.583 277.975 471.153 278.404 470.295 278.404H459.991ZM522.314 279.416C516.917 279.416 512.255 278.251 508.33 275.92C504.405 273.651 501.399 270.523 499.314 266.536C497.229 262.488 496.186 257.857 496.186 252.644C496.186 247.369 497.229 242.739 499.314 238.752C501.399 234.704 504.405 231.545 508.33 229.276C512.255 226.945 516.917 225.78 522.314 225.78C527.589 225.78 532.066 227.007 535.746 229.46C539.487 231.913 542.278 235.348 544.118 239.764C546.019 244.18 546.878 249.363 546.694 255.312C546.571 256.171 546.111 256.6 545.314 256.6H509.986C510.599 260.157 511.949 262.948 514.034 264.972C516.181 266.935 518.971 267.916 522.406 267.916C527.558 267.916 531.33 265.953 533.722 262.028C534.151 261.476 534.734 261.292 535.47 261.476L544.302 264.512C545.161 264.88 545.406 265.463 545.038 266.26C542.769 270.737 539.61 274.049 535.562 276.196C531.514 278.343 527.098 279.416 522.314 279.416ZM532.894 246.94C532.281 243.873 531.023 241.512 529.122 239.856C527.282 238.139 524.982 237.28 522.222 237.28C519.217 237.28 516.641 238.139 514.494 239.856C512.409 241.512 510.967 243.873 510.17 246.94H532.894ZM577.431 279.416C572.524 279.416 568.261 278.281 564.643 276.012C561.024 273.743 558.233 270.615 556.271 266.628C554.308 262.58 553.327 257.919 553.327 252.644C553.327 247.308 554.308 242.647 556.271 238.66C558.233 234.612 561.024 231.453 564.643 229.184C568.261 226.915 572.524 225.78 577.431 225.78C581.049 225.78 584.3 226.516 587.183 227.988C590.065 229.399 592.427 231.361 594.267 233.876L594.635 228.08C594.635 227.221 595.095 226.792 596.015 226.792H605.307C606.227 226.792 606.687 227.221 606.687 228.08V277.116C606.687 277.975 606.227 278.404 605.307 278.404H596.015C595.095 278.404 594.635 277.975 594.635 277.116L594.267 271.32C592.427 273.835 590.065 275.797 587.183 277.208C584.3 278.68 581.049 279.416 577.431 279.416ZM566.667 252.644C566.667 257.06 567.955 260.679 570.531 263.5C573.168 266.26 576.541 267.64 580.651 267.64C584.821 267.64 588.195 266.26 590.771 263.5C593.347 260.679 594.635 257.06 594.635 252.644C594.635 248.167 593.347 244.548 590.771 241.788C588.195 238.967 584.821 237.556 580.651 237.556C576.541 237.556 573.168 238.967 570.531 241.788C567.955 244.548 566.667 248.167 566.667 252.644ZM640.298 279.416C634.716 279.416 630.423 277.668 627.418 274.172C624.474 270.676 623.002 265.432 623.002 258.44V238.384H615.458C614.599 238.384 614.17 237.955 614.17 237.096V228.08C614.17 227.221 614.599 226.792 615.458 226.792H623.002V212.9C623.002 212.041 623.431 211.612 624.29 211.612H634.686C635.544 211.612 635.974 212.041 635.974 212.9V226.792H648.21C649.068 226.792 649.498 227.221 649.498 228.08V237.096C649.498 237.955 649.068 238.384 648.21 238.384H635.974V259.268C635.974 264.849 637.906 267.64 641.77 267.64C643.364 267.64 644.652 266.812 645.634 265.156C646.063 264.359 646.646 264.144 647.382 264.512L655.202 268.008C655.692 268.315 655.938 268.683 655.938 269.112C655.938 269.48 655.815 269.817 655.57 270.124C653.73 273.497 651.46 275.889 648.762 277.3C646.063 278.711 643.242 279.416 640.298 279.416ZM685.021 279.416C679.624 279.416 674.962 278.251 671.037 275.92C667.112 273.651 664.106 270.523 662.021 266.536C659.936 262.488 658.893 257.857 658.893 252.644C658.893 247.369 659.936 242.739 662.021 238.752C664.106 234.704 667.112 231.545 671.037 229.276C674.962 226.945 679.624 225.78 685.021 225.78C690.296 225.78 694.773 227.007 698.453 229.46C702.194 231.913 704.985 235.348 706.825 239.764C708.726 244.18 709.585 249.363 709.401 255.312C709.278 256.171 708.818 256.6 708.021 256.6H672.693C673.306 260.157 674.656 262.948 676.741 264.972C678.888 266.935 681.678 267.916 685.113 267.916C690.265 267.916 694.037 265.953 696.429 262.028C696.858 261.476 697.441 261.292 698.177 261.476L707.009 264.512C707.868 264.88 708.113 265.463 707.745 266.26C705.476 270.737 702.317 274.049 698.269 276.196C694.221 278.343 689.805 279.416 685.021 279.416ZM695.601 246.94C694.988 243.873 693.73 241.512 691.829 239.856C689.989 238.139 687.689 237.28 684.929 237.28C681.924 237.28 679.348 238.139 677.201 239.856C675.116 241.512 673.674 243.873 672.877 246.94H695.601ZM752.073 278.404C751.214 278.404 750.785 277.975 750.785 277.116V228.08C750.785 227.221 751.214 226.792 752.073 226.792H761.457C762.377 226.792 762.837 227.221 762.837 228.08L763.113 234.244C764.953 231.484 767.345 229.399 770.289 227.988C773.233 226.516 776.299 225.78 779.489 225.78C783.353 225.78 786.665 226.608 789.425 228.264C792.246 229.859 794.331 232.189 795.681 235.256C797.582 232.128 800.097 229.767 803.225 228.172C806.414 226.577 809.787 225.78 813.345 225.78C818.987 225.78 823.403 227.467 826.593 230.84C829.843 234.213 831.469 238.875 831.469 244.824V277.116C831.469 277.975 831.039 278.404 830.181 278.404H819.785C818.926 278.404 818.497 277.975 818.497 277.116V250.068C818.497 245.775 817.699 242.616 816.105 240.592C814.571 238.568 812.302 237.556 809.297 237.556C807.273 237.556 805.371 238.077 803.593 239.12C801.814 240.163 800.373 241.757 799.269 243.904C798.165 246.051 797.613 248.78 797.613 252.092V277.116C797.613 277.975 797.183 278.404 796.325 278.404H785.929C785.07 278.404 784.641 277.975 784.641 277.116V250.068C784.641 245.775 783.843 242.616 782.249 240.592C780.715 238.568 778.446 237.556 775.441 237.556C773.417 237.556 771.485 238.077 769.645 239.12C767.866 240.163 766.425 241.757 765.321 243.904C764.217 246.051 763.665 248.78 763.665 252.092V277.116C763.665 277.975 763.235 278.404 762.377 278.404H752.073ZM850.151 300.116C849.17 300.116 848.832 299.625 849.139 298.644L858.615 275.092L837.915 228.264C837.792 228.019 837.731 227.804 837.731 227.62C837.731 227.068 838.13 226.792 838.927 226.792H851.255C851.991 226.792 852.482 227.129 852.727 227.804L865.331 259.452L877.567 227.804C877.812 227.129 878.303 226.792 879.039 226.792H890.447C890.876 226.792 891.183 226.945 891.367 227.252C891.612 227.497 891.612 227.835 891.367 228.264L862.479 299.104C862.234 299.779 861.743 300.116 861.007 300.116H850.151ZM933.377 278.404C932.519 278.404 932.089 277.975 932.089 277.116V204.988C932.089 204.129 932.519 203.7 933.377 203.7H943.681C944.54 203.7 944.969 204.129 944.969 204.988V277.116C944.969 277.975 944.54 278.404 943.681 278.404H933.377ZM965.033 217.592C962.886 217.592 961.077 216.948 959.605 215.66C958.194 214.311 957.489 212.563 957.489 210.416C957.489 208.269 958.194 206.552 959.605 205.264C961.077 203.915 962.886 203.24 965.033 203.24C967.18 203.24 968.958 203.915 970.369 205.264C971.841 206.552 972.577 208.269 972.577 210.416C972.577 212.563 971.841 214.311 970.369 215.66C968.958 216.948 967.18 217.592 965.033 217.592ZM958.593 228.08C958.593 227.221 959.022 226.792 959.881 226.792H970.461C971.32 226.792 971.749 227.221 971.749 228.08V277.024C971.749 277.944 971.32 278.404 970.461 278.404H959.881C959.022 278.404 958.593 277.944 958.593 277.024V228.08ZM989.421 278.404C988.562 278.404 988.133 277.975 988.133 277.116V238.384H980.957C980.098 238.384 979.669 237.955 979.669 237.096V228.08C979.669 227.221 980.098 226.792 980.957 226.792H988.133V223.48C988.133 217.224 989.758 212.256 993.009 208.576C996.321 204.835 1000.74 202.964 1006.26 202.964C1014.41 202.964 1020.24 206.613 1023.74 213.912C1023.8 214.035 1023.83 214.219 1023.83 214.464C1023.83 214.955 1023.55 215.353 1023 215.66L1015 219.064C1014.87 219.125 1014.66 219.156 1014.35 219.156C1013.86 219.156 1013.49 218.911 1013.25 218.42C1012.45 217.009 1011.59 216.059 1010.67 215.568C1009.75 215.016 1008.62 214.74 1007.27 214.74C1005.37 214.74 1003.87 215.445 1002.76 216.856C1001.66 218.267 1001.11 220.413 1001.11 223.296V226.792H1014.08C1014.94 226.792 1015.37 227.221 1015.37 228.08V237.096C1015.37 237.955 1014.94 238.384 1014.08 238.384H1001.11V277.116C1001.11 277.975 1000.68 278.404 999.817 278.404H989.421ZM1045.2 279.416C1039.81 279.416 1035.15 278.251 1031.22 275.92C1027.3 273.651 1024.29 270.523 1022.2 266.536C1020.12 262.488 1019.08 257.857 1019.08 252.644C1019.08 247.369 1020.12 242.739 1022.2 238.752C1024.29 234.704 1027.3 231.545 1031.22 229.276C1035.15 226.945 1039.81 225.78 1045.2 225.78C1050.48 225.78 1054.96 227.007 1058.64 229.46C1062.38 231.913 1065.17 235.348 1067.01 239.764C1068.91 244.18 1069.77 249.363 1069.58 255.312C1069.46 256.171 1069 256.6 1068.2 256.6H1032.88C1033.49 260.157 1034.84 262.948 1036.92 264.972C1039.07 266.935 1041.86 267.916 1045.3 267.916C1050.45 267.916 1054.22 265.953 1056.61 262.028C1057.04 261.476 1057.62 261.292 1058.36 261.476L1067.19 264.512C1068.05 264.88 1068.3 265.463 1067.93 266.26C1065.66 270.737 1062.5 274.049 1058.45 276.196C1054.4 278.343 1049.99 279.416 1045.2 279.416ZM1055.78 246.94C1055.17 243.873 1053.91 241.512 1052.01 239.856C1050.17 238.139 1047.87 237.28 1045.11 237.28C1042.11 237.28 1039.53 238.139 1037.38 239.856C1035.3 241.512 1033.86 243.873 1033.06 246.94H1055.78Z" fill="#1A1A1A"/>
<path d="M40.996 346.7C40.772 346.7 40.66 346.588 40.66 346.364V325.28C40.66 325.075 40.772 324.972 40.996 324.972H48.052C49.7133 324.972 51.0667 325.215 52.112 325.7C53.176 326.185 53.96 326.848 54.464 327.688C54.968 328.509 55.22 329.443 55.22 330.488C55.22 331.645 54.94 332.653 54.38 333.512C53.8387 334.352 53.0267 334.959 51.944 335.332C53.3813 335.668 54.4547 336.293 55.164 337.208C55.892 338.123 56.256 339.261 56.256 340.624C56.256 341.819 55.9853 342.873 55.444 343.788C54.9213 344.703 54.0813 345.421 52.924 345.944C51.7853 346.448 50.292 346.7 48.444 346.7H40.996ZM43.152 334.324H48.08C49.6853 334.324 50.852 334.016 51.58 333.4C52.3267 332.765 52.7 331.897 52.7 330.796C52.7 329.713 52.2987 328.864 51.496 328.248C50.712 327.613 49.5173 327.296 47.912 327.296H43.152V334.324ZM43.152 344.348H48.444C50.236 344.348 51.5613 344.012 52.42 343.34C53.2787 342.668 53.708 341.707 53.708 340.456C53.708 339.224 53.2787 338.281 52.42 337.628C51.5613 336.956 50.236 336.62 48.444 336.62H43.152V344.348ZM66.2236 347.008C64.7862 347.008 63.5262 346.672 62.4436 346C61.3796 345.328 60.5489 344.413 59.9516 343.256C59.3729 342.08 59.0836 340.736 59.0836 339.224C59.0836 337.712 59.3729 336.377 59.9516 335.22C60.5489 334.044 61.3796 333.129 62.4436 332.476C63.5262 331.804 64.7862 331.468 66.2236 331.468C67.4182 331.468 68.5009 331.739 69.4716 332.28C70.4609 332.803 71.2169 333.521 71.7396 334.436L71.8236 332.056C71.8236 331.851 71.9356 331.748 72.1596 331.748H73.6716C73.8769 331.748 73.9796 331.851 73.9796 332.056V346.364C73.9796 346.588 73.8769 346.7 73.6716 346.7H72.1596C71.9356 346.7 71.8236 346.588 71.8236 346.364L71.7396 343.984C71.2169 344.899 70.4609 345.627 69.4716 346.168C68.5009 346.728 67.4182 347.008 66.2236 347.008ZM66.6716 344.796C67.6982 344.796 68.5942 344.563 69.3596 344.096C70.1249 343.629 70.7222 342.976 71.1516 342.136C71.5996 341.296 71.8236 340.325 71.8236 339.224C71.8236 338.104 71.5996 337.133 71.1516 336.312C70.7222 335.472 70.1249 334.819 69.3596 334.352C68.5942 333.885 67.6982 333.652 66.6716 333.652C65.6636 333.652 64.7676 333.885 63.9836 334.352C63.2182 334.819 62.6116 335.472 62.1636 336.312C61.7342 337.133 61.5196 338.104 61.5196 339.224C61.5196 340.325 61.7342 341.296 62.1636 342.136C62.6116 342.976 63.2182 343.629 63.9836 344.096C64.7676 344.563 65.6636 344.796 66.6716 344.796ZM83.6166 347.008C82.0486 347.008 80.7326 346.672 79.6686 346C78.6233 345.347 77.8579 344.357 77.3726 343.032C77.3166 342.827 77.3819 342.696 77.5686 342.64L79.1086 342.22C79.3139 342.164 79.4446 342.229 79.5006 342.416C79.8926 343.275 80.4153 343.891 81.0686 344.264C81.7406 344.637 82.5619 344.824 83.5326 344.824C84.3913 344.824 85.1006 344.656 85.6606 344.32C86.2393 343.984 86.5286 343.471 86.5286 342.78C86.5286 342.201 86.2953 341.735 85.8286 341.38C85.3619 341.007 84.6153 340.699 83.5886 340.456L82.6926 340.232C81.0499 339.765 79.8646 339.149 79.1366 338.384C78.4086 337.619 78.0446 336.695 78.0446 335.612C78.0446 334.399 78.5206 333.409 79.4726 332.644C80.4246 331.86 81.6846 331.468 83.2526 331.468C84.5406 331.468 85.6606 331.767 86.6126 332.364C87.5833 332.943 88.2926 333.848 88.7406 335.08C88.8339 335.248 88.7779 335.369 88.5726 335.444L87.0326 335.92C86.8459 335.995 86.7059 335.939 86.6126 335.752C85.9593 334.315 84.8299 333.596 83.2246 333.596C82.4219 333.596 81.7593 333.773 81.2366 334.128C80.7326 334.464 80.4806 334.959 80.4806 335.612C80.4806 336.191 80.7139 336.657 81.1806 337.012C81.6473 337.348 82.4406 337.665 83.5606 337.964L84.4006 338.188C86.0619 338.617 87.2379 339.205 87.9286 339.952C88.6193 340.68 88.9646 341.604 88.9646 342.724C88.9646 343.583 88.7313 344.339 88.2646 344.992C87.8166 345.627 87.1913 346.121 86.3886 346.476C85.5859 346.831 84.6619 347.008 83.6166 347.008ZM98.8486 347.008C97.3553 347.008 96.0579 346.672 94.9566 346C93.8739 345.328 93.0339 344.404 92.4366 343.228C91.8393 342.052 91.5406 340.717 91.5406 339.224C91.5406 337.712 91.8393 336.377 92.4366 335.22C93.0339 334.044 93.8833 333.129 94.9846 332.476C96.0859 331.804 97.3739 331.468 98.8486 331.468C100.323 331.468 101.565 331.813 102.573 332.504C103.599 333.195 104.374 334.156 104.897 335.388C105.419 336.601 105.671 338.02 105.653 339.644C105.653 339.868 105.541 339.98 105.317 339.98H94.0046C94.1539 341.473 94.6579 342.659 95.5166 343.536C96.3753 344.395 97.4859 344.824 98.8486 344.824C99.9499 344.824 100.846 344.609 101.537 344.18C102.246 343.751 102.806 343.135 103.217 342.332C103.291 342.164 103.431 342.108 103.637 342.164L105.093 342.696C105.317 342.752 105.382 342.883 105.289 343.088C104.654 344.395 103.777 345.375 102.657 346.028C101.555 346.681 100.286 347.008 98.8486 347.008ZM98.8486 333.596C97.5793 333.596 96.5059 333.997 95.6286 334.8C94.7699 335.603 94.2379 336.704 94.0326 338.104H103.133C103.021 336.741 102.591 335.649 101.845 334.828C101.098 334.007 100.099 333.596 98.8486 333.596ZM115.005 347.008C113.567 347.008 112.307 346.672 111.225 346C110.161 345.328 109.33 344.413 108.733 343.256C108.154 342.08 107.865 340.736 107.865 339.224C107.865 337.712 108.154 336.377 108.733 335.22C109.33 334.044 110.161 333.129 111.225 332.476C112.307 331.804 113.567 331.468 115.005 331.468C116.162 331.468 117.207 331.72 118.141 332.224C119.093 332.709 119.849 333.391 120.409 334.268V324.804C120.409 324.599 120.511 324.496 120.717 324.496H122.453C122.658 324.496 122.761 324.599 122.761 324.804V346.364C122.761 346.588 122.658 346.7 122.453 346.7H120.941C120.717 346.7 120.605 346.588 120.605 346.364L120.521 343.984C119.998 344.899 119.242 345.627 118.253 346.168C117.282 346.728 116.199 347.008 115.005 347.008ZM115.453 344.796C116.479 344.796 117.375 344.563 118.141 344.096C118.906 343.629 119.503 342.976 119.933 342.136C120.381 341.296 120.605 340.325 120.605 339.224C120.605 338.104 120.381 337.133 119.933 336.312C119.503 335.472 118.906 334.819 118.141 334.352C117.375 333.885 116.479 333.652 115.453 333.652C114.445 333.652 113.549 333.885 112.765 334.352C111.999 334.819 111.393 335.472 110.945 336.312C110.515 337.133 110.301 338.104 110.301 339.224C110.301 340.325 110.515 341.296 110.945 342.136C111.393 342.976 111.999 343.629 112.765 344.096C113.549 344.563 114.445 344.796 115.453 344.796ZM138.242 328.388C137.794 328.388 137.421 328.248 137.122 327.968C136.824 327.688 136.674 327.324 136.674 326.876C136.674 326.428 136.824 326.064 137.122 325.784C137.421 325.504 137.794 325.364 138.242 325.364C138.672 325.364 139.036 325.504 139.334 325.784C139.652 326.064 139.81 326.428 139.81 326.876C139.81 327.324 139.652 327.688 139.334 327.968C139.036 328.248 138.672 328.388 138.242 328.388ZM139.054 331.748C139.278 331.748 139.39 331.86 139.39 332.084V346.364C139.39 346.588 139.278 346.7 139.054 346.7H137.43C137.206 346.7 137.094 346.588 137.094 346.364V332.084C137.094 331.86 137.206 331.748 137.43 331.748H139.054ZM144.347 346.7C144.123 346.7 144.011 346.588 144.011 346.364V332.056C144.011 331.851 144.123 331.748 144.347 331.748H145.859C146.083 331.748 146.195 331.851 146.195 332.056L146.307 334.436C146.867 333.447 147.642 332.709 148.631 332.224C149.62 331.72 150.628 331.468 151.655 331.468C153.354 331.468 154.67 331.963 155.603 332.952C156.536 333.923 157.003 335.267 157.003 336.984V346.364C157.003 346.588 156.91 346.7 156.723 346.7H154.987C154.763 346.7 154.651 346.588 154.651 346.364V337.964C154.651 336.527 154.362 335.453 153.783 334.744C153.204 334.016 152.29 333.652 151.039 333.652C150.33 333.652 149.611 333.839 148.883 334.212C148.174 334.567 147.576 335.127 147.091 335.892C146.624 336.639 146.391 337.609 146.391 338.804V346.364C146.391 346.588 146.288 346.7 146.083 346.7H144.347ZM177.631 346.7C177.407 346.7 177.295 346.588 177.295 346.364V327.324H170.155C169.968 327.324 169.875 327.212 169.875 326.988V325.28C169.875 325.075 169.968 324.972 170.155 324.972H186.927C187.113 324.972 187.207 325.075 187.207 325.28V326.988C187.207 327.212 187.113 327.324 186.927 327.324H179.787V346.364C179.787 346.588 179.675 346.7 179.451 346.7H177.631ZM193.984 347.008C192.453 347.008 191.119 346.672 189.98 346C188.841 345.328 187.955 344.404 187.32 343.228C186.704 342.052 186.396 340.717 186.396 339.224C186.396 337.712 186.704 336.377 187.32 335.22C187.955 334.044 188.841 333.129 189.98 332.476C191.119 331.804 192.453 331.468 193.984 331.468C195.515 331.468 196.849 331.804 197.988 332.476C199.127 333.129 200.013 334.044 200.648 335.22C201.283 336.377 201.6 337.712 201.6 339.224C201.6 340.717 201.283 342.052 200.648 343.228C200.013 344.404 199.127 345.328 197.988 346C196.849 346.672 195.515 347.008 193.984 347.008ZM193.984 344.796C195.011 344.796 195.907 344.563 196.672 344.096C197.437 343.629 198.035 342.976 198.464 342.136C198.912 341.296 199.136 340.325 199.136 339.224C199.136 338.104 198.912 337.133 198.464 336.312C198.035 335.472 197.437 334.819 196.672 334.352C195.907 333.885 195.011 333.652 193.984 333.652C192.976 333.652 192.08 333.885 191.296 334.352C190.531 334.819 189.924 335.472 189.476 336.312C189.047 337.133 188.832 338.104 188.832 339.224C188.832 340.325 189.047 341.296 189.476 342.136C189.924 342.976 190.531 343.629 191.296 344.096C192.08 344.563 192.976 344.796 193.984 344.796ZM205.433 346.7C205.209 346.7 205.097 346.588 205.097 346.364V324.804C205.097 324.599 205.209 324.496 205.433 324.496H207.169C207.374 324.496 207.477 324.599 207.477 324.804V338.58L214.365 331.916C214.477 331.804 214.607 331.748 214.757 331.748H217.025C217.174 331.748 217.258 331.795 217.277 331.888C217.314 331.963 217.286 332.047 217.193 332.14L211.789 337.236L217.921 346.308C218.051 346.569 217.986 346.7 217.725 346.7H215.625C215.457 346.7 215.326 346.635 215.233 346.504L210.053 338.888L207.477 341.324V346.364C207.477 346.588 207.374 346.7 207.169 346.7H205.433ZM223.525 353.14C223.301 353.14 223.217 353.028 223.273 352.804L225.933 346.196L219.773 332.112C219.661 331.869 219.736 331.748 219.997 331.748H222.069C222.256 331.748 222.386 331.832 222.461 332L227.165 343.284L231.617 332C231.71 331.832 231.832 331.748 231.981 331.748H233.913C234.174 331.748 234.249 331.869 234.137 332.112L225.737 352.916C225.662 353.065 225.532 353.14 225.345 353.14H223.525ZM242.875 347.008C241.344 347.008 240.009 346.672 238.871 346C237.732 345.328 236.845 344.404 236.211 343.228C235.595 342.052 235.287 340.717 235.287 339.224C235.287 337.712 235.595 336.377 236.211 335.22C236.845 334.044 237.732 333.129 238.871 332.476C240.009 331.804 241.344 331.468 242.875 331.468C244.405 331.468 245.74 331.804 246.879 332.476C248.017 333.129 248.904 334.044 249.539 335.22C250.173 336.377 250.491 337.712 250.491 339.224C250.491 340.717 250.173 342.052 249.539 343.228C248.904 344.404 248.017 345.328 246.879 346C245.74 346.672 244.405 347.008 242.875 347.008ZM242.875 344.796C243.901 344.796 244.797 344.563 245.563 344.096C246.328 343.629 246.925 342.976 247.355 342.136C247.803 341.296 248.027 340.325 248.027 339.224C248.027 338.104 247.803 337.133 247.355 336.312C246.925 335.472 246.328 334.819 245.563 334.352C244.797 333.885 243.901 333.652 242.875 333.652C241.867 333.652 240.971 333.885 240.187 334.352C239.421 334.819 238.815 335.472 238.367 336.312C237.937 337.133 237.723 338.104 237.723 339.224C237.723 340.325 237.937 341.296 238.367 342.136C238.815 342.976 239.421 343.629 240.187 344.096C240.971 344.563 241.867 344.796 242.875 344.796Z" fill="#1A1A1A"/>
</g>
<defs>
<clipPath id="clip0_370_66">
<rect width="1089" height="480" fill="white"/>
</clipPath>
</defs>
</svg>
